<?xml version="1.0" standalone="no"?>
<!DOCTYPE svg PUBLIC "-//W3C//DTD SVG 20010904//EN"
 "http://www.w3.org/TR/2001/REC-SVG-20010904/DTD/svg10.dtd">
<svg version="1.0" xmlns="http://www.w3.org/2000/svg"
 width="712.000000pt" height="712.000000pt" viewBox="0 0 712.000000 712.000000"
 preserveAspectRatio="xMidYMid meet">
<metadata>
Created by potrace 1.14, written by Peter Selinger 2001-2017
</metadata>
<g transform="translate(0.000000,712.000000) scale(0.100000,-0.100000)"
fill="#000000" stroke="none">
<path d="M4807 6465 c-4 -8 -4 -24 -1 -37 3 -13 7 -34 10 -48 3 -14 11 -56 19
-95 24 -121 36 -207 41 -299 3 -50 6 -92 9 -94 2 -2 0 -15 -5 -28 -6 -15 -6
-24 0 -24 5 0 7 -7 4 -15 -3 -8 -7 -40 -9 -72 -1 -32 -4 -59 -5 -60 -1 -2 -3
-6 -4 -10 -8 -33 -20 -53 -31 -53 -8 0 -33 26 -56 58 -39 53 -149 168 -149
155 0 -3 -8 1 -17 9 -26 21 -84 53 -110 60 -28 7 -41 -25 -21 -50 7 -9 22 -33
32 -52 11 -19 22 -37 25 -40 27 -23 85 -178 96 -255 3 -23 7 -50 9 -60 6 -30
26 -244 30 -323 3 -43 -14 -55 -20 -15 -12 74 -103 206 -165 238 -60 31 -62
20 -15 -92 30 -70 47 -131 48 -168 1 -17 -12 -87 -23 -130 -21 -79 -152 -372
-172 -386 -5 -3 -8 -8 -6 -10 1 -2 -8 -24 -21 -49 -38 -75 -179 -340 -213
-400 -40 -72 -177 -350 -181 -370 -1 -3 -17 -41 -35 -85 -18 -44 -34 -84 -36
-90 -1 -5 -7 -28 -13 -50 -47 -168 -24 -286 84 -438 36 -50 40 -62 24 -72 -9
-5 -116 48 -130 65 -3 3 -16 11 -30 18 -14 7 -43 23 -65 37 -81 51 -245 125
-329 149 -110 32 -160 40 -266 40 -88 1 -92 0 -212 -32 -40 -11 -91 -23 -112
-26 -21 -4 -48 -8 -60 -11 -25 -5 -71 -11 -151 -20 -33 -3 -73 -8 -90 -10
-239 -31 -1356 -17 -1625 20 -19 3 -53 7 -75 10 -37 5 -58 8 -117 19 -51 10
-165 36 -196 45 -18 5 -33 10 -35 9 -9 -1 -84 16 -92 21 -5 3 -15 6 -21 7 -47
7 -143 42 -214 78 -47 24 -91 41 -97 39 -43 -15 14 -179 114 -330 48 -72 179
-203 203 -203 5 0 15 -6 22 -13 15 -15 129 -62 173 -71 53 -11 79 -16 115 -22
73 -12 65 -44 -21 -86 -82 -40 -192 -51 -292 -27 -26 6 -50 9 -52 7 -7 -7 39
-53 75 -75 89 -53 144 -77 235 -99 95 -23 228 -23 405 0 102 13 133 18 190 31
76 18 90 20 150 29 41 7 43 6 25 -7 -47 -33 -202 -95 -285 -113 -19 -4 -42 -9
-50 -11 -8 -2 -28 -5 -45 -8 -16 -3 -39 -7 -50 -9 -11 -3 -28 -5 -39 -5 -31
-2 0 -29 48 -42 68 -18 202 -44 286 -54 180 -23 524 -22 685 1 39 5 140 15
310 30 168 14 626 7 725 -12 14 -3 47 -7 73 -9 26 -2 56 -7 67 -10 24 -8 60
-16 87 -20 35 -5 135 -54 148 -72 26 -36 9 -54 -115 -123 -36 -20 -82 -46
-102 -58 -35 -20 -142 -89 -163 -105 -141 -106 -209 -164 -288 -245 -63 -65
-121 -141 -112 -150 2 -3 30 5 62 17 168 63 399 69 418 12 6 -20 -13 -71 -27
-71 -4 0 -8 -6 -9 -12 0 -7 -32 -40 -70 -73 -38 -33 -75 -65 -83 -72 -11 -10
-73 -61 -231 -191 -11 -10 -40 -33 -65 -52 -25 -19 -52 -40 -60 -47 -46 -37
-141 -111 -170 -133 -220 -165 -293 -254 -227 -276 65 -22 109 5 252 153 273
284 463 470 585 573 36 30 67 57 70 60 37 39 229 174 315 220 47 25 464 172
525 184 8 2 22 6 30 9 21 9 230 67 260 73 14 2 36 9 50 13 26 10 68 20 110 27
112 20 349 119 421 177 73 59 85 67 92 67 4 0 22 13 40 30 18 16 35 30 38 30
3 0 17 9 30 21 13 12 51 42 84 67 33 26 69 54 80 63 11 9 79 63 150 120 146
117 162 130 179 144 6 6 43 37 81 70 39 33 75 64 81 70 48 45 129 108 188 148
39 26 78 52 86 57 23 16 162 90 193 103 15 6 27 15 27 19 0 4 6 8 13 8 34 0
162 106 223 185 35 45 86 140 79 147 -3 2 52 58 122 124 70 65 154 145 187
177 34 32 104 98 156 147 212 199 254 239 250 243 -3 3 -54 -31 -115 -74 -60
-43 -120 -84 -132 -91 -40 -24 -168 -113 -187 -130 -11 -10 -23 -18 -27 -18
-4 0 -14 -6 -21 -12 -7 -7 -76 -56 -153 -108 -77 -52 -146 -100 -153 -107 -9
-8 -25 -11 -45 -7 -147 29 -328 -26 -501 -151 -103 -74 -159 -125 -361 -335
-75 -77 -195 -169 -271 -206 -129 -63 -299 -21 -397 98 -58 70 -81 139 -81
243 -1 78 3 97 25 142 30 58 149 223 161 223 4 0 8 7 8 15 0 8 4 15 8 15 4 0
26 24 47 53 22 28 42 54 46 57 6 6 69 92 122 167 20 29 37 57 37 62 0 5 3 11
8 13 10 4 101 148 144 228 62 116 129 303 152 426 11 57 18 109 22 151 6 71 5
271 -1 328 -3 28 -7 68 -9 91 -2 22 -6 54 -10 70 -3 16 -8 49 -11 73 -4 23
-10 54 -15 67 -5 13 -8 24 -6 24 2 0 -5 33 -15 73 -11 39 -22 81 -24 91 -26
114 -211 501 -246 514 -5 2 -9 8 -9 14 0 10 -90 132 -132 178 -30 33 -92 80
-105 80 -6 0 -13 -7 -16 -15z"/>
</g>
</svg>
