<svg width="24" height="24" viewBox="0 0 24 24" fill="none" xmlns="http://www.w3.org/2000/svg">
<path fill-rule="evenodd" clip-rule="evenodd" d="M0 12.067C0 18.0335 4.33333 22.9944 10 24L10.0669 23.9462C10.0446 23.9419 10.0223 23.9374 10 23.933V15.419H7.00003V12.067H10V9.38547C10 6.36871 11.9334 4.69273 14.6667 4.69273C15.5334 4.69273 16.4667 4.82681 17.3334 4.96089V8.04469H15.8C14.3334 8.04469 14 8.78212 14 9.72067V12.067H17.2L16.6667 15.419H14V23.933C13.9777 23.9374 13.9554 23.9419 13.9331 23.9462L14 24C19.6667 22.9944 24 18.0335 24 12.067C24 5.43017 18.6 0 12 0C5.4 0 0 5.43017 0 12.067Z" fill="url(#paint0_linear_166_3470)"/>
<defs>
<linearGradient id="paint0_linear_166_3470" x1="12" y1="23.2988" x2="12" y2="0" gradientUnits="userSpaceOnUse">
<stop stop-color="#0062E0"/>
<stop offset="1" stop-color="#19AFFF"/>
</linearGradient>
</defs>
</svg>
