<svg width="24" height="24" viewBox="0 0 24 24" fill="none" xmlns="http://www.w3.org/2000/svg">
<path fill-rule="evenodd" clip-rule="evenodd" d="M0 12.067C0 18.0335 4.33333 22.9944 10 24L10.0672 23.9459C10.0448 23.9415 10.0224 23.9371 10 23.9326V15.4186H7V12.0667H10V9.38512C10 6.36836 11.9333 4.69238 14.6667 4.69238C15.5333 4.69238 16.4667 4.82646 17.3333 4.96054V8.04434H15.8C14.3333 8.04434 14 8.78177 14 9.72032V12.0667H17.2L16.6667 15.4186H14V23.9326C13.9776 23.9371 13.9552 23.9415 13.9328 23.9459L14 24C19.6667 22.9944 24 18.0335 24 12.067C24 5.43017 18.6 0 12 0C5.4 0 0 5.43017 0 12.067Z" fill="white"/>
</svg>
