<svg width="85" height="76" viewBox="0 0 85 76" fill="none" xmlns="http://www.w3.org/2000/svg">
<path fill-rule="evenodd" clip-rule="evenodd" d="M84.9823 26.3323L85 26.3164L74.683 33.4009L75.0723 33.878L75.066 33.8833L75.262 34.1139L75.4997 34.4187L75.5076 34.4125L75.8889 34.879L84.9521 26.3615L85 26.3208L84.9823 26.3323Z" fill="white"/>
<path fill-rule="evenodd" clip-rule="evenodd" d="M30.2794 58.0445C30.0532 57.7441 31.9579 55.6494 34.5356 53.7261C37.8795 51.2312 39.7726 50.9547 39.6902 50.2099C39.5483 48.9369 33.8378 48.238 28.8597 48.3767C23.4365 48.5269 21.6276 49.3954 16.1494 48.9722C12.7887 48.7125 10.3751 48.1347 10.3937 47.8493C10.4079 47.6346 11.8 47.7106 13.8954 47.0153C15.1696 46.5921 16.3835 45.9905 16.3383 45.8386C16.2931 45.6866 14.4088 46.3368 11.6652 46.6337C9.71446 46.8457 8.19639 47.0118 6.43358 46.472C4.54308 45.8942 3.13319 44.7519 3.22719 44.546C3.29813 44.3923 4.15381 44.8756 5.46439 44.8067C6.86009 44.7325 8.28151 44.0566 8.2753 43.5822C8.26999 43.1652 6.48146 43.3092 4.72841 42.4805C1.24092 40.8355 -0.436756 36.1505 0.117446 35.7176C0.279716 35.5921 0.630859 35.8253 1.02722 36.055C2.34401 36.8184 4.04209 37.2035 7.43913 37.9766C9.84569 38.5234 12.1113 38.6136 16.6433 38.7947C17.3128 38.8221 19.7566 38.9139 23.0118 38.883C26.2669 38.8521 28.2434 38.83 30.7981 38.542C35.5625 38.004 35.1714 37.3378 37.3598 37.4297C42.7165 37.655 46.5348 41.7269 47.0198 41.1279C47.2708 40.8178 46.0622 39.9555 45.5443 38.2602C45.03 36.5816 45.4556 34.9375 47.0517 31.4884C48.2932 28.7929 48.748 28.2425 51.574 22.8357C54.2067 17.8 54.0843 16.5949 53.9274 15.8767C53.6286 14.4985 52.7747 13.3782 53.0451 13.1821C53.2854 13.0054 54.212 13.7042 54.8186 14.5585C55.6166 15.6903 55.6423 16.8123 55.754 16.7964C55.8933 16.776 55.7762 15.0135 55.5625 13.1662C55.4002 11.7641 55.3195 11.0635 55.1812 10.567C54.5126 8.21966 53.1471 7.0579 53.4229 6.77431C53.6543 6.53754 54.8061 7.16745 55.6671 7.8919C57.062 9.06691 57.3386 10.1889 57.7394 10.1094C58.4488 9.96451 58.2502 6.33081 58.236 6.08609C58.0196 2.31811 57.0283 0.263164 57.4796 0.0228609C57.946 -0.22451 59.5678 1.66611 60.8101 3.62652C63.1156 7.26375 63.8924 10.787 64.1886 12.607C64.5548 14.858 65.1524 18.8089 63.6157 23.2624C62.8328 25.5294 61.7731 27.1258 60.5494 28.9741C57.351 33.7996 54.9267 35.0444 55.1626 37.776C55.2016 38.2293 55.4109 39.8425 56.7303 40.9344C56.866 41.0466 58.0436 41.9946 59.6769 41.885C60.193 41.8515 61.1054 41.6898 63.1112 40.0518C64.6239 38.815 64.6328 38.451 66.3034 36.9005C67.4765 35.8112 68.5548 34.8244 70.2351 34.0187C71.9935 33.1749 73.1161 33.1502 73.7944 33.2138C74.4391 33.2748 75.4588 33.3702 75.8126 34.0187C76.4644 35.2096 74.3939 37.3988 74.2866 37.511C72.7969 39.0588 71.3506 39.2276 68.6355 41.0334C68.1407 41.362 67.7399 41.6518 67.4286 41.8939C66.4462 42.6634 65.8742 43.3383 61.9576 46.4446C57.9132 49.6516 55.8906 51.2551 54.377 51.9663C51.6804 53.2323 51.0136 52.8436 44.6931 54.8632C41.6684 55.8306 40.1539 56.3103 39.4977 56.6628C34.4159 59.3918 28.6318 66.1618 26.5551 68.1054C26.3308 68.3166 25.7251 68.8688 25.0406 68.7795C24.9564 68.768 24.591 68.7203 24.4899 68.5057C24.2301 67.9508 25.9087 66.6504 26.3928 66.274C34.6784 59.8247 36.294 58.3944 36.0369 57.7344C35.7868 57.0895 33.7527 57.1699 32.7223 57.3342C31.2131 57.5781 30.4168 58.2265 30.2794 58.0445Z" fill="white"/>
<path d="M0.137886 35.6988C0.0305922 35.7633 -0.0252715 35.9329 0.0110842 36.3446C0.0563071 36.8517 0.214144 37.4127 0.81889 38.5073C1.04889 38.9292 1.30138 39.3385 1.57527 39.7336C1.8123 40.0813 2.07177 40.4133 2.35203 40.7275C2.93553 41.3603 3.6187 41.8942 4.37465 42.308C5.08953 42.688 5.8533 42.9686 6.64467 43.142C7.28488 43.2886 8.25939 43.407 10.8167 43.3081C11.9694 43.2613 12.7214 43.1703 14.5702 42.9494C19.9668 42.3045 19.5625 42.3645 19.9234 42.3133C21.0672 42.149 21.1497 42.1145 27.0943 40.9881C31.8737 40.0852 31.4987 39.5101 33.6756 39.1779C40.2976 38.1663 46.5898 41.3061 46.6297 41.1595C46.635 41.1392 46.5153 41.1038 46.04 40.8264C45.9851 40.7937 45.8866 40.7381 45.4309 40.4536C44.9751 40.1691 44.9307 40.1409 44.7002 39.9995C44.4697 39.8581 44.2524 39.7247 43.9819 39.5701C43.888 39.5154 43.4366 39.2574 42.8017 38.9411C42.4976 38.79 42.2972 38.6902 42.0037 38.5621C41.531 38.3562 41.1444 38.2202 40.8917 38.1318C40.7144 38.07 40.5299 38.0055 40.2799 37.9304C40.0493 37.8606 39.6822 37.7537 39.2273 37.6654C38.7237 37.5617 38.214 37.4894 37.7013 37.4489C37.2548 37.4012 36.8044 37.4012 36.3579 37.4489C36.0972 37.4807 35.8471 37.5373 35.8321 37.5373C35.5927 37.5885 35.4561 37.6327 35.1067 37.7316C34.8921 37.7917 34.6767 37.8474 34.4612 37.9083C33.4769 38.1734 31.958 38.396 31.958 38.396C31.0713 38.5241 29.711 38.6858 27.7904 38.7759C26.9994 38.813 26.2936 38.8218 24.8801 38.8377C22.1082 38.8695 20.0528 38.8439 19.5758 38.8377C18.9488 38.8298 17.4875 38.8068 15.5944 38.7441C13.3022 38.6681 12.1299 38.6275 10.869 38.4888C9.09557 38.2935 7.71405 38.0152 7.41789 37.9587C6.41855 37.7555 5.28354 37.4798 4.41367 37.2696C3.96233 37.16 3.73621 37.1053 3.64665 37.0788C2.78032 36.8226 1.81379 36.5372 0.817116 35.9302C0.582134 35.7792 0.309023 35.5936 0.137886 35.6988Z" fill="white"/>
<path d="M27.4374 65.4692C26.9054 65.8694 27.2379 65.622 25.953 66.6177C25.836 66.706 25.5984 66.8906 25.3146 67.1548C25.0853 67.3778 24.8733 67.618 24.6806 67.8731C24.521 68.0692 24.4314 68.192 24.45 68.3466C24.4725 68.4667 24.5393 68.5742 24.6371 68.6479C24.8562 68.8299 25.1435 68.8078 25.3146 68.7919C25.413 68.7821 25.7881 68.738 26.251 68.404C26.4939 68.2273 26.4523 68.1964 27.0145 67.6292C27.1749 67.4658 27.3523 67.2953 27.7061 66.9543C28.1778 66.4993 28.1911 66.4957 28.2532 66.4092C28.3782 66.2325 28.3197 66.2563 28.6567 65.4188C28.779 65.114 28.8438 64.7898 28.9448 64.4779C28.9555 64.4434 28.9981 64.3127 28.9661 64.2941C28.9475 64.2835 28.9138 64.3127 28.8429 64.3719C28.5245 64.6369 28.6886 64.4929 28.6407 64.5397C28.4873 64.6882 27.8143 65.1909 27.4374 65.4692Z" fill="white"/>
<g opacity="0.8">
<g opacity="0.8">
<path opacity="0.8" d="M36.1779 56.5727C35.4936 56.929 34.7471 57.1516 33.9788 57.2282C33.8015 57.2282 33.5816 57.2423 33.3227 57.2653C33.1834 57.2777 33.038 57.2909 32.8438 57.3192C32.7773 57.3289 32.5184 57.3678 32.1761 57.4499C32.0706 57.4747 31.9598 57.5012 31.8135 57.5454C31.4461 57.6627 31.0855 57.8001 30.7334 57.9571L30.6359 57.9968C30.576 58.0227 30.5148 58.0451 30.4523 58.064C30.424 58.0743 30.3938 58.0788 30.3637 58.0772C30.3329 58.0776 30.3029 58.067 30.2794 58.0472C30.2369 58.0003 30.2741 57.9049 30.3007 57.8351C30.3203 57.7872 30.344 57.7411 30.3716 57.6973C30.4417 57.5772 30.5038 57.4906 30.5171 57.4711C30.5978 57.3581 30.6643 57.275 30.682 57.2538C30.94 56.9366 31.1865 56.6778 31.1865 56.6778C31.4588 56.3924 31.6733 56.1672 32.0174 55.8367C32.224 55.638 32.4865 55.3871 32.8385 55.0831C33.1471 54.8181 33.5647 54.4789 34.0861 54.1113C34.1553 54.5787 34.1313 54.7386 34.0808 54.7757C34.0764 54.7757 34.0498 54.7916 34.0569 54.8084C34.1225 54.9506 34.5428 54.9109 33.8902 55.403C33.5505 55.6168 35.0349 55.0292 34.6953 55.2439C34.4195 55.5973 35.9367 55.092 35.6583 55.433C35.3612 55.7431 34.6829 56.1716 35.1085 56.1468C35.1227 56.1786 34.7822 56.3933 34.7973 56.4251C35.374 56.4889 35.9568 56.4726 36.529 56.3765C36.4167 56.4437 36.2997 56.5091 36.1779 56.5727Z" fill="white"/>
</g>
</g>
<g opacity="0.9">
<g opacity="0.9">
<path opacity="0.9" d="M60.4067 47.5595C60.4067 47.5595 62.6865 46.1459 63.1245 45.4153C63.2177 45.2639 63.3281 45.1237 63.4535 44.9974C63.4937 44.9528 63.5383 44.9122 63.5865 44.8764C63.6025 44.8764 63.5927 44.8764 63.567 44.8711C63.5389 44.8734 63.5111 44.8793 63.4845 44.8888C63.4535 44.9639 63.2726 45.0867 63.1299 45.2307C62.8168 45.5116 62.4586 45.8164 62.6368 45.6556L62.9029 45.418L62.8709 45.4471L62.7574 45.5469L62.5065 45.7616C62.2192 46.0037 61.9833 46.183 61.8104 46.3058L61.6801 46.3942C61.63 46.4241 61.5868 46.4641 61.5533 46.5117C61.5373 46.5532 61.4708 46.5338 61.4265 46.5435H61.3901H61.3821L61.4362 46.5506L61.4469 46.5435L61.4681 46.5302L61.5479 46.4817C61.5967 46.4516 61.665 46.4119 61.759 46.3597C61.884 46.2882 61.7226 46.3792 61.665 46.4083L61.4398 46.5241C61.1878 46.6412 60.93 46.7455 60.6674 46.8368C59.904 47.1116 59.7399 47.0957 60.1256 46.8297C60.5309 46.5797 60.17 46.6645 60.303 46.5135C60.3792 46.3845 60.2081 46.3792 60.2782 46.2369C60.5442 46.017 60.6541 45.8553 60.5752 45.751C60.498 45.7557 60.422 45.7724 60.35 45.8005C60.2285 45.8429 60.2613 45.7917 60.2072 45.8005C60.3695 45.6141 60.9858 45.2227 60.8049 45.198C60.7614 45.1883 60.4661 45.2863 60.1966 45.433C58.8425 46.1495 57.8468 46.7069 56.9556 47.1999C56.138 47.6575 56.1442 47.7123 55.9465 47.8722C55.7 48.0825 54.0108 48.8732 52.3562 49.6144C51.0686 50.1843 49.0487 51.0518 49.164 51.1004C49.3989 51.1446 50.471 50.8433 49.9265 51.3142C49.4965 51.6729 49.0992 52.021 48.9777 52.3196C48.8772 52.421 48.7977 52.541 48.7437 52.673C48.8846 52.7507 48.9024 52.938 49.0425 53.0449C49.1826 53.1518 49.469 53.1942 50.1145 52.9566C50.231 52.9666 50.3435 53.0031 50.4435 53.0635C50.4776 53.0851 50.5102 53.109 50.541 53.135L50.5845 53.1704L50.6652 53.2296C50.7663 53.2013 50.9418 53.1527 51.1609 53.0935C51.6042 52.9734 51.7895 52.9265 51.919 52.8921C52.8359 52.643 53.6809 52.2074 54.2945 51.8911L54.3451 51.8655C54.7884 51.6367 55.4632 51.2621 56.7756 50.3433C59.3152 48.5675 58.8186 48.5463 60.4067 47.5595Z" fill="white"/>
<path opacity="0.9" d="M55.9775 47.8633C56.1761 47.7025 56.1691 47.6486 56.9875 47.1901C57.8795 46.6962 58.8745 46.1388 60.2285 45.4231C60.4945 45.2791 60.7933 45.1784 60.8359 45.1881C61.0185 45.2129 60.4014 45.6043 60.24 45.7916C60.2905 45.7916 60.2613 45.8375 60.3828 45.7916C60.455 45.7633 60.5314 45.7466 60.6089 45.7421C60.6869 45.8463 60.5761 46.0071 60.3109 46.228C60.2409 46.3711 60.4111 46.3755 60.3358 46.5045C60.1983 46.6556 60.5601 46.5699 60.1531 46.8208C59.7683 47.0858 59.9323 47.1017 60.6949 46.8261C60.8944 46.7536 61.1702 46.6494 61.4663 46.5107L61.6916 46.395L61.806 46.3331L61.7953 46.3393L61.7492 46.3667C61.6605 46.4153 61.5878 46.455 61.5399 46.4868L61.461 46.5354L61.4389 46.5487H61.4335L61.3794 46.5416H61.3919H61.4282C61.4743 46.5337 61.5364 46.5469 61.5532 46.5063C61.5892 46.4559 61.6358 46.4139 61.6898 46.3835L61.555 46.4718C61.4264 46.5522 61.2677 46.6874 61.0505 46.8252C60.9334 46.8871 60.7978 46.9454 60.6594 47.0116L60.5539 47.0611L60.5424 47.0796H60.5353C60.5202 47.0646 60.5548 47.1017 60.5512 47.0982L60.5255 47.1123L60.4741 47.1406L60.2613 47.2546C59.9704 47.4083 59.6512 47.5629 59.3258 47.7034C58.7255 47.9625 58.1123 48.1908 57.4885 48.3872C56.976 48.5497 56.6346 48.6451 56.6346 48.6451C56.6346 48.6451 56.4333 48.3995 56.2799 48.2034C56.1882 48.0823 56.0871 47.9686 55.9775 47.8633Z" fill="white"/>
<path opacity="0.9" d="M61.5568 46.5067L61.6171 46.4387L61.8086 46.3053L62.0108 46.156L62.0746 46.1082C62.0746 46.1082 62.0995 46.0888 62.0746 46.1082L61.7031 46.3945C61.7031 46.3945 60.3251 47.4653 58.7946 48.4432C58.0285 48.9309 57.2384 49.4053 56.5778 49.7031C56.2373 49.8444 55.989 49.9973 55.7878 50.0874C55.5483 50.1386 55.4251 50.1872 55.3719 50.1572L55.2043 50.0847C55.1052 50.0382 55.0007 50.0043 54.8931 49.984C55.0259 49.8756 55.1504 49.7575 55.2655 49.6306C55.4056 49.469 55.457 49.3347 55.0695 49.4027C55.0695 49.4027 54.5552 49.4027 54.1828 49.3585C53.8104 49.3144 53.5736 49.2463 54.0462 49.0361C54.1372 48.9481 54.2357 48.8683 54.3406 48.7975C54.6008 48.6136 54.8754 48.4508 55.1617 48.3107C55.1617 48.3107 55.6352 48.0872 56.0751 47.869C56.5149 47.6508 56.9219 47.4202 56.7942 47.4326L57.7581 46.8504C58.2582 46.5517 58.8008 46.239 58.9995 46.2399C58.9995 46.2399 59.4836 46.1215 59.6202 46.1259C59.5334 46.3254 59.4223 46.5135 59.2894 46.686C59.0731 46.9696 58.7725 47.27 58.4745 47.4167C58.4745 47.4167 57.9425 47.8337 58.1562 47.9759C58.2626 48.0422 58.557 48.0351 59.1546 47.7992C59.54 47.6415 59.9146 47.4591 60.2764 47.2532L60.4493 47.1552L60.4945 47.1295L60.5167 47.1163L60.5282 47.1101H60.5335C60.5007 47.0748 60.5264 47.0995 60.5193 47.0915L60.6151 47.0412L61.0177 46.8239L61.461 46.58C61.4796 46.5694 61.5 46.5588 61.5178 46.5464C61.5355 46.5341 61.5178 46.5464 61.5249 46.5403L61.5328 46.5305L61.5568 46.5067Z" fill="white"/>
<path opacity="0.9" d="M61.5701 46.4917L61.61 46.444L61.7572 46.3415C61.8743 46.2593 62.0507 46.1286 62.1802 46.0252L62.3008 45.9289L62.4267 45.8264C62.4267 45.8264 62.4506 45.8061 62.4267 45.8264L62.3717 45.8724L62.2582 45.9669L62.0223 46.171C61.3697 46.7329 60.6302 47.4652 59.9669 47.9997C59.9669 47.9997 59.6415 48.2648 59.1272 48.6473C58.6129 49.0299 57.9 49.5361 57.1214 50.007C56.374 50.4704 55.5843 50.8623 54.7627 51.1776C54.5904 51.2458 54.4124 51.2988 54.2307 51.3357C54.142 51.3516 54.0534 51.364 53.9718 51.3728C53.8978 51.3729 53.8245 51.3864 53.7554 51.4126L53.5994 51.4718L53.5302 51.4956L53.5142 51.5009H53.5071H53.5009C53.5391 51.5407 53.4477 51.4461 53.4566 51.4559H53.4176C53.3317 51.4542 53.2471 51.4347 53.1693 51.3984C53.1693 51.3984 53.1533 51.379 53.0026 51.409C52.6716 51.4893 52.3459 51.5897 52.0272 51.7094C52.0272 51.7094 51.6867 51.7395 51.5138 51.6652C51.3409 51.591 51.3222 51.4002 51.95 51.0018L52.702 50.3683C53.0629 50.0662 53.3865 49.7879 53.1853 49.8002C53.1853 49.8002 53.4513 49.6527 53.6481 49.529C53.845 49.4053 53.9833 49.3029 53.7182 49.3762C54.0892 49.3289 54.4632 49.3077 54.8372 49.3126C55.3285 49.3302 55.692 49.4186 55.1148 49.7923C55.0684 49.8362 55.0289 49.8868 54.9977 49.9425C54.9614 50.0211 54.9702 50.1095 55.1307 50.1254C55.2912 50.1413 55.6211 50.0953 56.1842 49.8603C56.4386 49.719 56.812 49.5891 57.2252 49.3744C57.6384 49.1597 58.1119 48.8814 58.6652 48.5325C58.6652 48.5325 59.4633 47.9865 60.3296 47.3601L61.618 46.4369C61.7634 46.3344 61.7111 46.3724 61.7067 46.3777L61.6659 46.406C61.6274 46.4263 61.5945 46.4557 61.5701 46.4917Z" fill="white"/>
</g>
</g>
<g opacity="0.9">
<g opacity="0.9">
<path opacity="0.9" d="M66.1616 37.0325C66.1616 37.021 66.1944 36.9962 66.5296 36.6897C66.7069 36.5306 66.7956 36.4502 66.8408 36.4061C66.886 36.3619 67.0483 36.2197 67.2921 36.0085C67.4695 35.8557 67.6788 35.6763 67.7878 35.5853C68.1745 35.269 68.5799 34.976 69.0017 34.708C69.4659 34.4106 69.9504 34.1458 70.4515 33.9156C70.9239 33.692 71.4168 33.5144 71.9235 33.3855C72.7161 33.1713 73.5465 33.1347 74.3549 33.2786C74.6635 33.3254 74.7468 33.3122 74.7983 33.3802C75.027 33.6797 74.2955 34.5914 74.1776 34.7434C72.295 37.0881 68.3864 37.3364 67.3356 37.2339C67.0722 37.2074 66.1589 37.119 66.1616 37.0325Z" fill="white"/>
</g>
</g>
<path d="M59.3773 6.28832C58.3806 3.92947 57.8698 3.34373 58.0028 3.24213C58.2892 3.0248 60.9175 5.4508 61.3343 7.57112C61.4096 7.95101 61.4797 8.65778 61.5595 9.46085C61.6739 10.6094 61.6482 10.7587 61.5843 10.7781C61.391 10.8399 60.8448 9.65786 60.4094 8.72051C59.9332 7.6895 59.7506 7.17267 59.3773 6.28832Z" fill="white"/>
<path opacity="0.73" d="M20.3055 47.1533C19.4525 46.9651 18.1561 46.5711 16.4447 46.7725C15.8506 46.8432 15.3408 46.9686 13.0105 47.3512C12.6735 47.4068 12.3374 47.4678 12.0014 47.5279C10.6713 47.7549 10.3893 47.7602 10.3787 47.8512C10.3583 48.0279 11.3541 48.3133 12.497 48.5438C13.7952 48.8089 15.2255 49.0934 17.3084 49.0306C22.2093 48.8822 31.6113 46.7663 31.5306 46.4076C31.4579 46.0896 24.2931 48.0341 20.3055 47.1533Z" fill="white"/>
<path d="M55.7763 16.7283C55.7767 16.7248 55.7767 16.7213 55.7763 16.7177C55.7763 16.7054 55.7887 16.6294 55.794 16.579C55.7993 16.5286 55.8016 16.4778 55.8011 16.4271C55.8008 15.934 55.7747 15.4412 55.7231 14.9508C55.6619 14.3986 55.7009 14.5091 55.6264 13.6742C55.5253 12.5398 55.3835 11.5415 55.3276 11.2111C54.9578 9.01921 53.0461 7.14714 53.4132 6.78404C53.688 6.51193 55.0022 7.31412 55.7293 7.94756C56.4325 8.55715 56.8031 9.04306 56.9157 9.21799C57.1605 9.61554 57.3544 10.042 57.493 10.4875C58.244 13.0434 55.8224 16.7478 55.7763 16.7283Z" fill="white"/>
<path d="M57.4779 0.0231727C57.5154 0.00259788 57.5589 -0.00457178 57.6011 0.00285263C57.6743 0.0126432 57.745 0.0360171 57.8095 0.0717629C57.8839 0.111367 57.9553 0.156245 58.0232 0.20605C58.1039 0.264359 58.1615 0.313833 58.2165 0.360657C58.2901 0.423383 58.3424 0.472857 58.4001 0.527632C58.4001 0.527632 58.518 0.638949 58.643 0.769702L58.7486 0.881901L58.8097 0.948161C58.98 1.13546 59.1148 1.29536 59.1148 1.29536C59.1662 1.35544 59.2088 1.40756 59.2549 1.46411L59.3595 1.59221C59.4695 1.72826 59.6725 1.988 59.7825 2.13289C60.2258 2.71509 60.6896 3.43777 60.6896 3.43777C61.0993 4.07298 61.391 4.59158 61.5373 4.8575C61.6668 5.0925 61.876 5.48388 62.1146 5.98039C62.2343 6.22864 62.5065 6.80643 62.8098 7.57063C63.1902 8.5336 63.4189 9.29074 63.4854 9.51425C63.7555 10.444 63.9742 11.3878 64.1407 12.3413C64.2028 12.6718 64.2746 13.0552 64.3518 13.5738C64.5291 14.7806 64.585 15.7277 64.6063 16.1809C64.6577 17.3232 64.6382 18.6749 64.5575 18.6793C64.4768 18.6838 64.4528 17.6828 64.209 16.0289C63.9903 14.4684 63.6538 12.9265 63.2026 11.4164C63.0501 10.919 62.8479 10.2767 62.5207 9.47273C61.2012 6.25691 59.5493 5.45738 58.0179 2.18325C57.7013 1.50651 57.493 0.946395 57.3892 0.657502C57.3604 0.502462 57.3559 0.343907 57.3759 0.187497V0.180429C57.3896 0.117396 57.4258 0.0614865 57.4779 0.0231727Z" fill="white"/>
<path d="M53.7545 15.2751C53.6996 15.1108 53.6534 14.995 53.5896 14.8333C53.5426 14.7158 53.4566 14.5012 53.3342 14.237C53.3005 14.1663 53.2456 14.0603 53.1764 13.8933C53.1258 13.7803 53.1684 13.8721 53.0753 13.6539C53.0753 13.6539 52.9565 13.3756 52.9866 13.2546C52.9907 13.2395 52.9967 13.2249 53.0044 13.2113C53.0105 13.2008 53.0183 13.1912 53.0274 13.183C53.0414 13.171 53.0582 13.1625 53.0762 13.1583C53.0848 13.1553 53.0937 13.1532 53.1028 13.1521C53.1406 13.1481 53.1787 13.1511 53.2154 13.1609C53.2865 13.1824 53.3556 13.2099 53.422 13.2431C53.4911 13.2784 53.5583 13.3173 53.6233 13.3597C53.7458 13.4421 53.8622 13.533 53.9718 13.6318C54.1106 13.7538 54.2429 13.883 54.3681 14.0188C54.5649 14.2254 54.7429 14.4489 54.9002 14.6867C55.1086 15.0082 55.2763 15.3542 55.3994 15.7168C55.4881 15.9607 55.5599 16.2336 55.5767 16.307C55.5767 16.307 55.6255 16.4837 55.6654 16.6542C55.8428 17.4564 54.6421 19.0007 54.6421 19.0007C53.4717 20.5026 52.1779 21.8198 52.1097 21.7588C52.1008 21.7509 52.123 21.7306 52.2099 21.5565C52.3065 21.3631 52.4564 21.0627 52.6151 20.7243C52.757 20.4204 52.8607 20.1845 52.9246 20.0396C52.9574 19.9636 53.0629 19.7233 53.164 19.4786C53.2837 19.1888 53.4468 18.7922 53.6153 18.2806C53.7704 17.8294 53.8844 17.3652 53.9558 16.8936C53.9749 16.7525 53.9838 16.6102 53.9824 16.4678C53.9783 16.2735 53.956 16.0801 53.9159 15.89C53.8761 15.6816 53.8222 15.4762 53.7545 15.2751Z" fill="white"/>
<path d="M63.0323 10.846C63.1772 11.3122 63.2957 11.7862 63.387 12.2658C63.9412 15.19 63.896 20.8504 63.4845 20.8654C63.1298 20.8778 63.5865 16.729 61.5337 11.1261C60.4918 8.27778 59.1839 6.09827 59.5351 5.87564C59.8153 5.69895 60.9281 6.92078 61.5009 7.6894C62.4187 8.92007 62.8142 10.1507 63.0323 10.846Z" fill="white"/>
<path d="M55.7479 16.8107C55.7681 16.7558 55.7849 16.6997 55.7984 16.6428C55.9563 16.005 55.8188 15.5429 55.7098 14.633C55.6974 14.5322 55.6681 14.2866 55.6433 14.0057C55.6326 13.8882 55.6371 13.9067 55.5777 13.4067C55.5573 13.23 55.3897 11.8279 55.3258 11.4021C54.9835 9.11217 53.5612 7.69156 53.8539 7.36379C54.0826 7.10847 55.1361 7.82408 55.716 8.39038C56.2773 8.93813 56.569 9.3781 56.6577 9.53889C56.8536 9.9046 57.0026 10.2934 57.101 10.6962C57.5825 12.7909 55.7541 16.8116 55.7479 16.8107Z" fill="white"/>
<path opacity="0.73" d="M23.785 47.6862C20.1876 47.8461 18.6261 46.7629 15.0703 47.437C13.9247 47.6543 12.7923 48.013 12.8154 48.256C12.8429 48.5466 14.5205 48.741 15.6068 48.8638L15.8143 48.8868C16.8083 48.9937 17.633 49.0264 18.321 49.0396C19.355 49.0599 20.3171 49.0396 20.7817 49.0175C24.1034 48.8461 28.4297 47.1499 28.3543 46.9025C28.31 46.747 26.6696 47.5589 23.785 47.6862Z" fill="white"/>
<path d="M9.23659 45.9144C6.8114 45.4877 5.60102 45.2748 4.69036 44.9276C4.34099 44.7942 3.3186 44.3842 3.22372 44.5477C3.18647 44.6113 3.31239 44.7517 3.41968 44.8586C4.31527 45.7633 5.58684 46.2006 5.85285 46.2899C6.36363 46.4656 6.88521 46.6084 7.41437 46.7175C10.4886 47.2749 17.0797 45.6308 17.0052 45.3472C16.952 45.1361 13.2402 46.6194 9.23659 45.9144Z" fill="white"/>
<path opacity="0.85" d="M9.62851 46.023C7.63249 45.7739 6.63492 45.6493 5.62051 45.2544C5.26582 45.1166 4.5396 44.8082 4.45447 44.9337C4.36935 45.0591 4.9537 45.5318 5.00513 45.5733C5.83067 46.2448 6.94351 46.5548 8.60966 46.6467C9.02642 46.6697 10.431 46.7351 12.8801 46.3596C14.9293 46.0477 16.6044 45.6034 16.5902 45.5318C16.5716 45.4214 13.1559 46.4603 9.62851 46.023Z" fill="white"/>
<path opacity="0.85" d="M11.3816 45.9422C9.37047 45.9289 8.36669 45.9227 7.31061 45.6489C6.9435 45.5534 6.18447 45.3335 6.11442 45.4722C6.04436 45.6109 6.68103 46.0075 6.73512 46.0429C7.63426 46.6127 8.77459 46.7903 10.4416 46.6852C10.8584 46.6595 12.2612 46.5571 14.6482 45.8998C16.6469 45.3485 18.2563 44.7115 18.235 44.6408C18.2049 44.5304 14.9364 45.966 11.3816 45.9422Z" fill="white"/>
<path d="M55.7763 16.7281C55.7709 16.7281 55.7816 16.7042 55.7984 16.6398C55.8307 16.5034 55.8462 16.3637 55.8445 16.2236C55.8321 12.8753 55.2903 10.846 55.2903 10.846C55.1671 10.3901 55.0642 10.0738 55.1742 10.0058C55.3746 9.88123 56.2019 10.6295 56.6727 11.5077C57.4974 13.0485 57.0389 14.6308 56.9822 14.8172C56.6355 15.9524 55.8126 16.7493 55.7763 16.7281Z" fill="white"/>
<path opacity="0.85" d="M1.51765 37.7257C1.29331 37.9183 1.69499 38.7266 2.0284 39.3928C2.35383 40.0439 2.85483 41.0484 3.96323 41.9124C4.25053 42.1368 5.19578 42.833 6.93908 43.1784C8.82159 43.5512 10.2847 43.2473 12.7613 42.6837C15.8232 41.9866 19.6219 41.1226 19.5838 40.9485C19.5456 40.7745 16.2887 41.6553 12.0874 41.4292C11.2967 41.3877 10.5085 41.3063 9.72605 41.1853C8.63981 41.0175 7.13682 40.7833 5.6285 40.1517C3.06498 39.0791 1.85815 37.4332 1.51765 37.7257Z" fill="white"/>
<path opacity="0.85" d="M4.69652 44.856C4.65662 44.9779 5.51763 45.3551 5.65595 45.4161C7.20063 46.0937 8.73998 46.2112 9.73488 46.1997C11.519 46.1821 12.8287 45.7447 13.7358 45.4338C14.9027 45.0336 16.1033 44.4567 16.0563 44.3179C16.0093 44.1792 14.7874 44.606 12.5431 44.9196C11.4463 45.076 10.5853 45.1979 9.39793 45.1952C7.16161 45.189 5.77655 44.9593 5.77655 44.9593C5.31191 44.8772 4.72755 44.7597 4.69652 44.856Z" fill="white"/>
<path d="M60.0175 3.94596C60.7667 5.05118 61.7164 6.47002 62.589 8.6036C64.123 12.3539 64.4777 16.0079 64.2658 18.2484C64.1735 19.1408 64.0221 20.0262 63.8126 20.8988C63.6327 21.6176 63.4073 22.3243 63.1378 23.0147C62.4347 24.8285 61.4415 26.5256 61.2943 26.4602C61.1915 26.4143 61.6074 25.5591 62.1039 23.6959C62.4884 22.2689 62.762 20.8145 62.9224 19.3457C63.0226 18.3986 63.0545 17.6167 63.0607 17.2916C63.1166 14.1721 61.4548 11.9767 59.2371 6.62551C59.0084 6.0707 57.2615 1.56855 57.7652 1.315C58.1163 1.1383 59.4287 3.08193 60.0175 3.94596Z" fill="white"/>
<path d="M3.49415 69.6814V74.4972H6.22171C6.40251 74.4848 6.58127 74.5414 6.72182 74.6553C6.77864 74.7046 6.82395 74.7656 6.85459 74.8341C6.88522 74.9026 6.90044 74.977 6.89917 75.052C6.90163 75.1264 6.88748 75.2004 6.85773 75.2687C6.82798 75.337 6.78338 75.3979 6.72714 75.4469C6.58371 75.5568 6.40486 75.6105 6.22437 75.598H2.97364C2.68013 75.598 2.46998 75.5335 2.34141 75.4045C2.21283 75.2755 2.14899 75.0653 2.14899 74.7764V69.6814C2.14899 69.4102 2.21017 69.2079 2.33254 69.0718C2.39322 69.005 2.46784 68.9522 2.55116 68.9171C2.63449 68.882 2.72451 68.8654 2.81492 68.8686C2.90651 68.8652 2.99777 68.8813 3.08253 68.9161C3.16729 68.9509 3.24356 69.0034 3.30616 69.0701C3.43208 69.2035 3.49415 69.4075 3.49415 69.6814Z" fill="white"/>
<path d="M11.1457 73.509H8.72668C8.72405 73.7656 8.78207 74.0192 8.89605 74.2493C8.99 74.4451 9.13835 74.6099 9.3235 74.7242C9.50865 74.8386 9.72282 74.8976 9.94061 74.8942C10.0774 74.8958 10.2138 74.8786 10.3458 74.843C10.4713 74.8061 10.5907 74.7513 10.7005 74.6804C10.8118 74.6087 10.9179 74.5293 11.018 74.4428C11.1143 74.3586 11.2397 74.2443 11.3939 74.1C11.4716 74.0413 11.568 74.0124 11.6653 74.0187C11.7774 74.0134 11.8874 74.0507 11.973 74.123C12.0132 74.1601 12.0446 74.2057 12.065 74.2564C12.0854 74.3072 12.0943 74.3618 12.0909 74.4163C12.0821 74.5556 12.0369 74.6903 11.9597 74.8068C11.8557 74.9731 11.7212 75.1185 11.5633 75.2353C11.3621 75.3853 11.137 75.5006 10.8974 75.5763C10.5997 75.671 10.2885 75.7167 9.97608 75.7115C9.18157 75.7115 8.56382 75.4859 8.12282 75.0347C7.68183 74.5836 7.46133 73.9713 7.46133 73.198C7.45833 72.8535 7.51348 72.5109 7.62449 72.1847C7.72503 71.8872 7.88727 71.6142 8.10066 71.3834C8.31501 71.1567 8.57818 70.9815 8.87033 70.8709C9.19445 70.7495 9.53851 70.6896 9.88474 70.6942C10.3186 70.6825 10.7475 70.7878 11.1262 70.999C11.4542 71.1839 11.7233 71.457 11.9029 71.7871C12.0697 72.0884 12.1583 72.4263 12.161 72.7704C12.161 73.0802 12.0723 73.281 11.8949 73.3729C11.7176 73.4648 11.4678 73.5101 11.1457 73.509ZM8.72668 72.8093H10.9683C10.9382 72.3881 10.8244 72.073 10.6269 71.864C10.5264 71.7593 10.4047 71.6772 10.2698 71.6232C10.135 71.5691 9.99008 71.5443 9.84484 71.5503C9.70296 71.546 9.56181 71.5722 9.43099 71.6271C9.30017 71.6819 9.18274 71.7642 9.08669 71.8684C8.88866 72.0804 8.76865 72.394 8.72668 72.8093Z" fill="white"/>
<path d="M13.2064 74.9619V69.6178C13.2064 69.3716 13.2614 69.1852 13.3713 69.0585C13.4265 68.9961 13.4949 68.9467 13.5716 68.9138C13.6482 68.881 13.7313 68.8655 13.8147 68.8686C13.8992 68.8654 13.9834 68.8804 14.0615 68.9128C14.1395 68.9451 14.2097 68.9939 14.2669 69.0559C14.3822 69.1813 14.4399 69.3686 14.4399 69.6178V74.9619C14.4399 75.2116 14.3807 75.3989 14.2625 75.5237C14.2053 75.5853 14.1354 75.6339 14.0577 75.6662C13.98 75.6985 13.8962 75.7138 13.8121 75.711C13.7282 75.7141 13.6448 75.6982 13.568 75.6646C13.4912 75.6309 13.423 75.5804 13.3687 75.5167C13.2486 75.3576 13.1909 75.1603 13.2064 74.9619Z" fill="white"/>
<path d="M19.1723 73.509H16.7533C16.7506 73.7657 16.8089 74.0194 16.9236 74.2493C17.0173 74.4451 17.1655 74.61 17.3505 74.7243C17.5355 74.8386 17.7496 74.8976 17.9673 74.8943C18.1041 74.8959 18.2404 74.8786 18.3725 74.843C18.498 74.8063 18.6175 74.7515 18.7272 74.6805C18.8388 74.6092 18.9449 74.5298 19.0446 74.4428C19.1416 74.3586 19.2669 74.2443 19.4206 74.1C19.4983 74.0414 19.5946 74.0125 19.6919 74.0188C19.8043 74.0132 19.9147 74.0505 20.0005 74.123C20.0406 74.1603 20.0719 74.2059 20.0923 74.2566C20.1127 74.3073 20.1216 74.3618 20.1184 74.4163C20.1092 74.5557 20.0637 74.6903 19.9863 74.8068C19.8829 74.9735 19.7483 75.119 19.59 75.2353C19.3889 75.3851 19.1641 75.5004 18.9249 75.5763C18.6269 75.671 18.3155 75.7167 18.0027 75.7115C17.2082 75.7115 16.5908 75.4859 16.1504 75.0347C15.7099 74.5836 15.4895 73.9713 15.4889 73.198C15.4854 72.8535 15.5406 72.5109 15.652 72.1847C15.7519 71.8871 15.9139 71.6141 16.1273 71.3834C16.3417 71.1568 16.6048 70.9816 16.897 70.871C17.2214 70.7495 17.5657 70.6895 17.9123 70.6943C18.3461 70.6824 18.7751 70.7877 19.1537 70.9991C19.4817 71.1839 19.7509 71.457 19.9305 71.7871C20.0972 72.0884 20.1859 72.4264 20.1885 72.7704C20.1885 73.0802 20.0998 73.2811 19.9225 73.3729C19.7451 73.4648 19.4951 73.5102 19.1723 73.509ZM16.7533 72.8093H18.9959C18.9657 72.3882 18.8516 72.0731 18.6536 71.864C18.5532 71.7594 18.4316 71.6774 18.2969 71.6233C18.1622 71.5692 18.0175 71.5443 17.8724 71.5503C17.7304 71.546 17.5891 71.5721 17.4581 71.627C17.3271 71.6819 17.2095 71.7642 17.1133 71.8684C16.9159 72.0804 16.7959 72.3941 16.7533 72.8093Z" fill="white"/>
<path d="M24.3135 75.1467L23.222 73.3594L22.5516 73.992V74.9709C22.5581 75.0701 22.5448 75.1697 22.5125 75.2639C22.4803 75.358 22.4297 75.4449 22.3636 75.5195C22.3088 75.5796 22.242 75.6277 22.1675 75.6608C22.093 75.6938 22.0124 75.7109 21.9309 75.7112C21.8466 75.7153 21.7624 75.7003 21.6847 75.6674C21.607 75.6345 21.5378 75.5845 21.4822 75.5213C21.374 75.3949 21.319 75.2085 21.319 74.962V69.7089C21.319 69.4351 21.372 69.2266 21.4778 69.0834C21.5297 69.0133 21.5983 68.957 21.6773 68.9195C21.7564 68.8821 21.8435 68.8646 21.9309 68.8688C22.0162 68.8652 22.1013 68.8808 22.1797 68.9144C22.2582 68.9481 22.328 68.9989 22.384 69.0631C22.4957 69.1927 22.5516 69.3838 22.5516 69.6365V72.6244L23.942 71.1711C24.0631 71.0371 24.1951 70.9133 24.3366 70.8009C24.433 70.7326 24.5491 70.6975 24.6673 70.7011C24.7381 70.6989 24.8086 70.7108 24.8747 70.7362C24.9407 70.7615 25.0011 70.7997 25.0522 70.8486C25.1025 70.8955 25.1423 70.9525 25.1689 71.0159C25.1955 71.0792 25.2083 71.1475 25.2064 71.2161C25.2064 71.3964 25.0386 71.6369 24.7028 71.9379L24.0466 72.5387L25.3146 74.5238C25.4086 74.6714 25.4751 74.7836 25.5159 74.8604C25.5541 74.9273 25.5751 75.0026 25.5771 75.0795C25.5867 75.2486 25.5291 75.4146 25.4166 75.5416C25.362 75.5981 25.296 75.6425 25.223 75.6718C25.1499 75.701 25.0714 75.7144 24.9927 75.7112C24.9294 75.7153 24.8659 75.7066 24.806 75.6856C24.7461 75.6647 24.6911 75.6319 24.6443 75.5893C24.5204 75.4523 24.4097 75.3041 24.3135 75.1467Z" fill="white"/>
<path d="M41.9301 73.9365V74.9613C41.9301 75.211 41.871 75.3983 41.7527 75.5232C41.6956 75.5844 41.6261 75.6328 41.5487 75.6651C41.4713 75.6974 41.3879 75.7128 41.304 75.7105C41.2214 75.7127 41.1392 75.6969 41.0634 75.6641C40.9876 75.6313 40.9199 75.5823 40.8651 75.5205C40.7499 75.3942 40.6931 75.2078 40.6931 74.9613V71.5308C40.6931 70.9777 40.8938 70.7009 41.2952 70.7003C41.5009 70.7003 41.6499 70.7657 41.7385 70.8947C41.8412 71.0681 41.8929 71.2668 41.8875 71.4681C42.0056 71.2525 42.1597 71.0586 42.3433 70.8947C42.5204 70.7584 42.7405 70.6895 42.964 70.7003C43.2284 70.7017 43.4883 70.7685 43.7204 70.8947C43.9651 71.0243 44.0875 71.196 44.0875 71.4098C44.0894 71.4792 44.0765 71.5483 44.0496 71.6124C44.0227 71.6766 43.9824 71.7343 43.9314 71.7817C43.8425 71.8729 43.7211 71.9256 43.5936 71.9283C43.4814 71.9127 43.3713 71.8845 43.2655 71.8444C43.1173 71.7934 42.962 71.7654 42.8053 71.7614C42.6452 71.7546 42.488 71.8051 42.3619 71.9036C42.2354 72.0169 42.1433 72.1632 42.0959 72.3259C42.0267 72.5419 41.9826 72.7651 41.9647 72.9912C41.9422 73.2485 41.9307 73.5636 41.9301 73.9365Z" fill="white"/>
<path d="M44.9476 70.8093H45.0832V70.0689C45.0832 69.871 45.0886 69.7155 45.0992 69.6024C45.1068 69.4999 45.1371 69.4004 45.1879 69.3109C45.2378 69.2254 45.3098 69.1546 45.3962 69.1059C45.4885 69.0525 45.5937 69.025 45.7004 69.0264C45.8599 69.0279 46.0126 69.0913 46.126 69.2031C46.2091 69.2791 46.2654 69.3798 46.2865 69.4902C46.3128 69.649 46.3241 69.8099 46.3202 69.9708V70.8101H46.7733C46.9179 70.7999 47.061 70.8444 47.1741 70.9347C47.2192 70.9743 47.255 71.0234 47.2789 71.0783C47.3029 71.1333 47.3143 71.1929 47.3125 71.2528C47.3185 71.3236 47.303 71.3947 47.2679 71.4567C47.2328 71.5186 47.1797 71.5686 47.1156 71.6C46.9376 71.675 46.7447 71.7089 46.5516 71.6989H46.3193V73.965C46.3173 74.1125 46.3242 74.26 46.3397 74.4067C46.3492 74.5001 46.3873 74.5883 46.4488 74.6594C46.4871 74.6948 46.5326 74.7217 46.5821 74.7385C46.6316 74.7552 46.684 74.7614 46.7361 74.7566C46.8352 74.7535 46.9338 74.7408 47.0305 74.7186C47.1257 74.6965 47.2228 74.6835 47.3204 74.6797C47.3706 74.6807 47.4201 74.6919 47.4659 74.7125C47.5116 74.7332 47.5526 74.7629 47.5865 74.7999C47.6259 74.8381 47.657 74.8841 47.6777 74.9348C47.6985 74.9856 47.7085 75.0401 47.707 75.0949C47.707 75.294 47.5983 75.446 47.3807 75.5508C47.1632 75.6557 46.8508 75.709 46.4435 75.7107C46.0574 75.7107 45.7645 75.6459 45.5647 75.5164C45.3703 75.3937 45.2304 75.2015 45.1737 74.9792C45.1037 74.679 45.0724 74.3711 45.0806 74.0631V71.698H44.9174C44.7703 71.7084 44.6247 71.6633 44.5095 71.5717C44.4642 71.5318 44.4281 71.4825 44.4039 71.4272C44.3797 71.372 44.368 71.3121 44.3694 71.2519C44.3678 71.1912 44.3803 71.1309 44.4058 71.0757C44.4313 71.0206 44.4692 70.972 44.5166 70.9338C44.6406 70.8421 44.7936 70.7979 44.9476 70.8093Z" fill="white"/>
<path d="M55.6148 73.6122C55.6201 73.9943 55.5121 74.3695 55.3045 74.6909C55.0816 75.0233 54.766 75.2834 54.3965 75.4392C53.9486 75.6299 53.4647 75.7224 52.9777 75.7104C52.3221 75.7104 51.7815 75.587 51.3559 75.3402C51.0574 75.1666 50.805 74.9243 50.6199 74.6335C50.4443 74.3785 50.3461 74.0785 50.3371 73.7694C50.3363 73.6909 50.3515 73.6129 50.3816 73.5403C50.4117 73.4677 50.4561 73.4019 50.5123 73.3467C50.5685 73.2916 50.6352 73.2482 50.7086 73.2193C50.7819 73.1904 50.8603 73.1765 50.9392 73.1784C51.0723 73.175 51.2014 73.2235 51.2992 73.3136C51.4122 73.4271 51.4983 73.5645 51.551 73.7155C51.6221 73.9019 51.714 74.0797 51.825 74.2456C51.9312 74.3961 52.0735 74.5176 52.2391 74.599C52.459 74.6996 52.6996 74.7468 52.9414 74.7368C53.3404 74.7368 53.6655 74.6444 53.9168 74.4594C54.0314 74.3834 54.1254 74.2805 54.1905 74.1597C54.2556 74.0389 54.2898 73.9039 54.2901 73.7668C54.2943 73.6688 54.2787 73.5709 54.2441 73.4791C54.2095 73.3873 54.1567 73.3033 54.0888 73.2323C53.9428 73.088 53.7643 72.9805 53.5683 72.9186C53.3543 72.8462 53.0696 72.7693 52.7144 72.6881C52.3025 72.5986 51.9009 72.4678 51.5155 72.2976C51.2121 72.1633 50.9485 71.9534 50.7503 71.688C50.5544 71.4074 50.4551 71.071 50.4674 70.7294C50.4615 70.3822 50.5661 70.042 50.7662 69.7576C50.9841 69.46 51.2851 69.2329 51.6317 69.1047C52.0563 68.9445 52.5078 68.8671 52.9618 68.8768C53.3201 68.8693 53.6772 68.9207 54.0187 69.0287C54.2891 69.1144 54.5407 69.2505 54.76 69.4298C54.9381 69.5755 55.0845 69.7559 55.1901 69.9599C55.2762 70.1262 55.3226 70.31 55.3258 70.4971C55.3256 70.6569 55.2651 70.8107 55.1564 70.9282C55.1045 70.9895 55.0395 71.0386 54.9662 71.0717C54.8929 71.1049 54.8131 71.1213 54.7326 71.1199C54.6688 71.125 54.6046 71.1174 54.5437 71.0977C54.4828 71.078 54.4265 71.0465 54.3779 71.0051C54.2729 70.8927 54.185 70.7656 54.1172 70.6278C54.0162 70.4043 53.868 70.2051 53.6827 70.0439C53.5133 69.9034 53.2393 69.8336 52.8669 69.8336C52.5199 69.8336 52.24 69.9096 52.0272 70.0615C51.8143 70.2135 51.7079 70.3964 51.7079 70.6102C51.7047 70.7332 51.7428 70.8539 51.8161 70.9529C51.8967 71.0561 51.9986 71.1408 52.1149 71.2012C52.2373 71.269 52.3666 71.3235 52.5007 71.3637C52.6301 71.4026 52.8444 71.4598 53.1435 71.5351C53.4874 71.6138 53.8268 71.7103 54.1606 71.824C54.4354 71.9151 54.696 72.0442 54.9347 72.2075C55.1452 72.3546 55.3162 72.5509 55.4331 72.7791C55.559 73.0385 55.6213 73.324 55.6148 73.6122Z" fill="white"/>
<path d="M61.1055 74.1848C61.1003 74.3576 61.0528 74.5265 60.9671 74.6769C60.8593 74.8683 60.715 75.037 60.5424 75.1734C60.3316 75.3429 60.0911 75.4721 59.833 75.5542C59.52 75.6562 59.1923 75.7067 58.863 75.7035C58.0986 75.7035 57.5021 75.4814 57.0735 75.0373C56.645 74.5932 56.4307 73.9984 56.4307 73.2527C56.4221 72.7881 56.5245 72.3282 56.7295 71.9107C56.9163 71.5322 57.2128 71.2183 57.5807 71.0096C57.9203 70.8359 58.291 70.7309 58.6714 70.7006C59.0519 70.6703 59.4346 70.7152 59.7976 70.8329C60.0428 70.9139 60.2725 71.0358 60.4768 71.1934C60.6467 71.3231 60.791 71.4831 60.9024 71.6651C60.9925 71.805 61.0433 71.9664 61.0496 72.1325C61.0506 72.2031 61.0364 72.273 61.008 72.3376C60.9795 72.4023 60.9375 72.46 60.8847 72.5071C60.7765 72.6087 60.6325 72.6639 60.4839 72.6608C60.3919 72.6642 60.3014 72.6362 60.2276 72.5813C60.1399 72.5074 60.0629 72.4218 59.9988 72.3269C59.875 72.127 59.7143 71.9522 59.5253 71.8118C59.2855 71.6657 59.0007 71.6111 58.7236 71.6581C58.4465 71.705 58.1958 71.8503 58.0179 72.0671C57.7945 72.3516 57.6827 72.7403 57.6827 73.2333C57.6812 73.4494 57.711 73.6645 57.7714 73.872C57.8212 74.052 57.9055 74.2206 58.0197 74.3685C58.1244 74.5023 58.2597 74.6092 58.4143 74.6804C58.5736 74.7522 58.7467 74.7884 58.9215 74.7864C59.146 74.7927 59.3674 74.7331 59.5581 74.615C59.7536 74.4795 59.9143 74.3 60.0272 74.0911C60.0897 73.9699 60.1721 73.86 60.2711 73.766C60.3596 73.6877 60.4746 73.6457 60.593 73.6485C60.6645 73.6472 60.7354 73.662 60.8005 73.6916C60.8656 73.7213 60.9231 73.7651 60.9689 73.8199C61.0576 73.9209 61.1062 74.0506 61.1055 74.1848Z" fill="white"/>
<path d="M63.1618 69.6172V71.4451C63.2974 71.2844 63.452 71.1406 63.622 71.0166C63.7727 70.9105 63.9403 70.8305 64.1177 70.7798C64.3077 70.7256 64.5045 70.6988 64.7021 70.7003C64.9929 70.6948 65.2804 70.7632 65.5373 70.8991C65.7337 71.0121 65.9028 71.1667 66.0324 71.3521C66.1621 71.5374 66.2492 71.749 66.2875 71.9716C66.3196 72.1797 66.3347 72.3901 66.3327 72.6007V74.9613C66.3327 75.2075 66.276 75.3939 66.1625 75.5205C66.1061 75.5833 66.0365 75.6329 65.9586 75.6657C65.8807 75.6986 65.7965 75.7138 65.712 75.7105C65.3041 75.7105 65.1002 75.4607 65.1002 74.9613V72.8807C65.1002 72.4867 65.0411 72.1837 64.9229 71.9716C64.8046 71.7596 64.5812 71.6533 64.2525 71.6527C64.039 71.6508 63.8304 71.7164 63.6566 71.84C63.4774 71.9689 63.3396 72.1469 63.2602 72.3524C63.194 72.5362 63.1609 72.8628 63.1609 73.3322V74.9613C63.1609 75.2051 63.1059 75.3909 62.996 75.5188C62.9386 75.5831 62.8675 75.6337 62.7878 75.6669C62.7082 75.7001 62.622 75.715 62.5358 75.7105C62.1279 75.7105 61.924 75.4607 61.924 74.9613V69.6172C61.924 69.3681 61.9777 69.1808 62.0853 69.0553C62.1414 68.9923 62.2111 68.9428 62.2891 68.9103C62.3671 68.8779 62.4514 68.8634 62.5358 68.868C62.6218 68.8636 62.7078 68.8784 62.7874 68.9113C62.867 68.9441 62.9383 68.9942 62.996 69.058C63.1065 69.1846 63.1618 69.371 63.1618 69.6172Z" fill="white"/>
<path d="M72.1851 73.2058C72.189 73.5517 72.1307 73.8954 72.0131 74.2209C71.9052 74.518 71.7354 74.789 71.5148 75.016C71.2951 75.2404 71.0296 75.4152 70.7362 75.5284C70.4106 75.6511 70.0646 75.7111 69.7165 75.7051C69.3715 75.7115 69.0286 75.6515 68.7065 75.5284C68.4129 75.4123 68.1474 75.2354 67.9276 75.0094C67.7077 74.7834 67.5386 74.5134 67.4314 74.2174C67.3146 73.8924 67.2569 73.5492 67.2611 73.204C67.2571 72.855 67.3154 72.508 67.4332 72.1792C67.5397 71.8824 67.708 71.6115 67.9271 71.3841C68.1471 71.1608 68.413 70.9875 68.7065 70.8761C69.3617 70.6364 70.081 70.6364 70.7362 70.8761C71.031 70.9899 71.298 71.1652 71.5192 71.3903C71.7392 71.6174 71.9085 71.8884 72.0158 72.1854C72.1322 72.5129 72.1896 72.8584 72.1851 73.2058ZM70.9437 73.2058C70.9437 72.7028 70.8329 72.3114 70.6112 72.0317C70.5062 71.8959 70.3703 71.7871 70.2147 71.7141C70.0591 71.6411 69.8883 71.6061 69.7165 71.612C69.4895 71.608 69.2666 71.6733 69.078 71.7993C68.8838 71.937 68.7355 72.1297 68.6524 72.3524C68.4544 72.9009 68.4544 73.501 68.6524 74.0495C68.7359 74.2707 68.8823 74.4629 69.0736 74.6025C69.2632 74.7325 69.4891 74.7996 69.7191 74.7943C69.8913 74.8002 70.0624 74.7649 70.218 74.6915C70.3737 74.618 70.5094 74.5084 70.6138 74.372C70.8338 74.091 70.9437 73.7023 70.9437 73.2058Z" fill="white"/>
<path d="M77.7892 73.2058C77.7913 73.552 77.7313 73.8958 77.6118 74.2209C77.5043 74.5182 77.3344 74.7892 77.1135 75.016C76.8939 75.2404 76.6283 75.4152 76.335 75.5284C76.0093 75.6511 75.6633 75.7111 75.3152 75.7051C74.9703 75.7115 74.6274 75.6515 74.3053 75.5284C74.0116 75.4123 73.7461 75.2354 73.5263 75.0094C73.3065 74.7834 73.1374 74.5134 73.0301 74.2174C72.8025 73.5569 72.8025 72.8397 73.0301 72.1792C73.1364 71.8825 73.3044 71.6115 73.5232 71.3841C73.7432 71.1608 74.0091 70.9875 74.3026 70.8761C74.9578 70.6364 75.6771 70.6364 76.3323 70.8761C76.6279 70.989 76.8953 71.1645 77.1162 71.3903C77.3371 71.6162 77.5062 71.8872 77.6118 72.1845C77.7316 72.5117 77.7916 72.8575 77.7892 73.2058ZM76.5478 73.2058C76.5478 72.7028 76.4366 72.3114 76.2144 72.0317C76.1095 71.8959 75.9736 71.787 75.818 71.714C75.6624 71.641 75.4915 71.6061 75.3197 71.612C75.0926 71.608 74.8698 71.6733 74.6812 71.7993C74.4869 71.937 74.3387 72.1297 74.2556 72.3524C74.0576 72.9009 74.0576 73.501 74.2556 74.0495C74.3391 74.2707 74.4855 74.4629 74.6768 74.6025C74.8664 74.7325 75.0923 74.7996 75.3223 74.7943C75.4945 74.8003 75.6656 74.7652 75.8213 74.6917C75.977 74.6182 76.1127 74.5085 76.217 74.372C76.4381 74.091 76.5484 73.7023 76.5478 73.2058Z" fill="white"/>
<path d="M78.7628 74.9619V69.6178C78.7628 69.3716 78.8177 69.1852 78.9277 69.0586C78.9828 68.9961 79.0512 68.9466 79.1279 68.9138C79.2046 68.8809 79.2876 68.8655 79.3711 68.8686C79.4557 68.8653 79.5401 68.8803 79.6183 68.9126C79.6965 68.9449 79.7668 68.9938 79.8242 69.0559C79.9395 69.1814 79.9962 69.3687 79.9962 69.6178V74.9619C79.9962 75.2116 79.9371 75.3989 79.8189 75.5238C79.7615 75.5854 79.6915 75.634 79.6136 75.6663C79.5357 75.6986 79.4518 75.7139 79.3675 75.7111C79.2837 75.714 79.2003 75.698 79.1236 75.6643C79.0468 75.6307 78.9786 75.5802 78.9242 75.5167C78.8047 75.3573 78.7474 75.1602 78.7628 74.9619Z" fill="white"/>
<path d="M30.2838 71.3287V71.0036C30.3065 70.8957 30.3657 70.7989 30.4515 70.7295C30.5373 70.66 30.6445 70.6221 30.7551 70.6221C30.8657 70.6221 30.9729 70.66 31.0588 70.7295C31.1446 70.7989 31.2038 70.8957 31.2264 71.0036V75.6524C31.1955 75.7528 31.133 75.8408 31.0481 75.9032C30.9633 75.9657 30.8606 75.9994 30.7551 75.9994C30.6497 75.9994 30.5469 75.9657 30.4621 75.9032C30.3773 75.8408 30.3148 75.7528 30.2838 75.6524V75.0702C29.8304 75.5355 29.3049 75.7684 28.7072 75.769C28.3648 75.7753 28.0245 75.7136 27.7062 75.5874C27.388 75.4612 27.0981 75.2731 26.8537 75.034C26.6093 74.7949 26.4151 74.5097 26.2825 74.195C26.15 73.8803 26.0817 73.5425 26.0817 73.2012C26.0817 72.8599 26.15 72.5221 26.2825 72.2074C26.4151 71.8927 26.6093 71.6075 26.8537 71.3684C27.0981 71.1294 27.388 70.9412 27.7062 70.815C28.0245 70.6888 28.3648 70.6271 28.7072 70.6334C29.3061 70.6334 29.8316 70.8652 30.2838 71.3287ZM30.2838 73.5444V72.858C30.2237 72.555 30.0721 72.2776 29.8493 72.0629C29.6236 71.8384 29.3362 71.6857 29.0234 71.6239C28.7106 71.5622 28.3865 71.5942 28.092 71.7159C27.7974 71.8377 27.5457 72.0436 27.3686 72.3078C27.1915 72.572 27.097 72.8826 27.097 73.2003C27.097 73.518 27.1915 73.8286 27.3686 74.0928C27.5457 74.357 27.7974 74.563 28.092 74.6847C28.3865 74.8064 28.7106 74.8385 29.0234 74.7767C29.3362 74.715 29.6236 74.5622 29.8493 74.3378C30.0718 74.1235 30.2234 73.8468 30.2838 73.5444Z" fill="white"/>
<path d="M39.6556 74.2979C39.6296 74.229 39.6001 74.1548 39.5669 74.0752L37.8316 69.8054C37.7802 69.6694 37.7341 69.5528 37.6942 69.4521L37.6818 69.422L37.6658 69.3814L37.1684 68.1445H36.1797C36.0336 68.5062 35.8859 68.8678 35.7363 69.2294C35.715 69.2745 35.6955 69.3178 35.6751 69.3726L35.5953 69.5766L35.5004 69.8169L33.8059 74.1132C33.7775 74.1821 33.7545 74.2431 33.7323 74.2996L33.1542 75.6876L34.5304 75.7044L34.8522 74.9216C34.8992 74.8191 34.948 74.6981 35.0012 74.5558L35.3187 73.7077H38.0196L38.3362 74.5382C38.3787 74.6398 38.4293 74.7582 38.4878 74.8916L38.5029 74.9234C38.6211 75.1831 38.7393 75.4431 38.8576 75.7035L40.2346 75.6867L39.6556 74.2979ZM35.6716 72.6997L36.6549 69.9689L37.6561 72.6997H35.6716Z" fill="white"/>
</svg>
