<svg width="89" height="80" viewBox="0 0 89 80" fill="none" xmlns="http://www.w3.org/2000/svg">
<path fill-rule="evenodd" clip-rule="evenodd" d="M88.9814 27.719L89 27.7022L78.1975 35.1597L78.6051 35.6619L78.5986 35.6675L78.8037 35.9102L79.0526 36.231L79.0609 36.2245L79.4602 36.7155L88.9499 27.7497L89 27.7069L88.9814 27.719Z" fill="url(#paint0_linear_311_859)"/>
<path fill-rule="evenodd" clip-rule="evenodd" d="M31.7043 61.1004C31.4676 60.7842 33.4619 58.5792 36.1609 56.5547C39.6621 53.9284 41.6443 53.6373 41.558 52.8534C41.4094 51.5133 35.4302 50.7777 30.2179 50.9237C24.5394 51.0818 22.6454 51.9959 16.9094 51.5505C13.3906 51.2771 10.8634 50.6689 10.8828 50.3685C10.8977 50.1425 12.3554 50.2225 14.5493 49.4906C15.8835 49.0451 17.1545 48.4118 17.1072 48.2519C17.0598 48.0919 15.0869 48.7764 12.2142 49.0888C10.1717 49.312 8.58214 49.4869 6.73638 48.9187C4.75692 48.3104 3.28069 47.108 3.3791 46.8913C3.45338 46.7295 4.34933 47.2382 5.72159 47.1657C7.18297 47.0875 8.67128 46.3761 8.66478 45.8767C8.65921 45.4378 6.78652 45.5894 4.95097 44.717C1.29937 42.9854 -0.457262 38.0538 0.123021 37.5981C0.292927 37.466 0.660594 37.7115 1.07561 37.9533C2.45436 38.7568 4.23235 39.1623 7.78925 39.976C10.3091 40.5517 12.6813 40.6465 17.4266 40.8372C18.1276 40.866 20.6864 40.9627 24.0947 40.9302C27.5031 40.8976 29.5726 40.8744 32.2475 40.5712C37.236 40.0049 36.8266 39.3037 39.118 39.4004C44.7268 39.6375 48.7247 43.9238 49.2325 43.2932C49.4953 42.9668 48.2298 42.0592 47.6876 40.2746C47.1491 38.5076 47.5948 36.7769 49.266 33.1463C50.5658 30.309 51.0421 29.7296 54.0011 24.0382C56.7576 18.7373 56.6295 17.4688 56.4652 16.7128C56.1523 15.262 55.2582 14.0828 55.5414 13.8763C55.793 13.6903 56.7632 14.426 57.3983 15.3252C58.2339 16.5165 58.2608 17.6976 58.3778 17.6809C58.5236 17.6595 58.401 15.8042 58.1773 13.8596C58.0073 12.3837 57.9229 11.6463 57.778 11.1236C57.078 8.65268 55.6482 7.42977 55.9369 7.13124C56.1792 6.88201 57.3853 7.54508 58.2868 8.30766C59.7473 9.54453 60.0369 10.7256 60.4566 10.6419C61.1994 10.4894 60.9914 6.6644 60.9765 6.4068C60.75 2.44046 59.712 0.277343 60.1846 0.0243905C60.6729 -0.236002 62.3711 1.75414 63.6718 3.81775C66.0858 7.64645 66.8991 11.3552 67.2092 13.2709C67.5927 15.6405 68.2185 19.7993 66.6095 24.4873C65.7896 26.8736 64.6801 28.5541 63.3989 30.4996C60.0499 35.5791 57.5116 36.8895 57.7585 39.7649C57.7994 40.242 58.0185 41.9401 59.4 43.0896C59.5421 43.2077 60.7751 44.2056 62.4853 44.0902C63.0256 44.0549 63.981 43.8847 66.0812 42.1605C67.6651 40.8586 67.6744 40.4754 69.4236 38.8433C70.6519 37.6967 71.7809 36.6579 73.5403 35.8098C75.3815 34.9216 76.5569 34.8956 77.2672 34.9625C77.9421 35.0267 79.0099 35.1272 79.3803 35.8098C80.0627 37.0634 77.8948 39.3678 77.7824 39.4859C76.2226 41.1153 74.7083 41.2929 71.8654 43.1937C71.3473 43.5397 70.9277 43.8447 70.6018 44.0995C69.5731 44.9095 68.9742 45.62 64.8733 48.8898C60.6386 52.2656 58.5208 53.9535 56.9359 54.7022C54.1125 56.0348 53.4143 55.6256 46.7963 57.7515C43.6293 58.7699 42.0435 59.2748 41.3565 59.6459C36.0355 62.5186 29.9792 69.645 27.8048 71.6909C27.5699 71.9132 26.9358 72.4944 26.219 72.4005C26.1308 72.3884 25.7483 72.3382 25.6424 72.1122C25.3704 71.5282 27.128 70.1592 27.6349 69.7631C36.3104 62.9743 38.002 61.4686 37.7327 60.7739C37.4709 60.0951 35.3411 60.1797 34.2622 60.3527C32.682 60.6093 31.8482 61.2919 31.7043 61.1004Z" fill="#F46A40"/>
<path d="M0.144374 37.5786C0.0320318 37.6465 -0.0264607 37.825 0.0116058 38.2584C0.0589569 38.7922 0.224221 39.3827 0.857426 40.5349C1.09825 40.9791 1.36262 41.4099 1.64939 41.8258C1.89758 42.1918 2.16926 42.5413 2.46272 42.872C3.07368 43.5382 3.789 44.1001 4.58052 44.5357C5.32903 44.9357 6.12875 45.2311 6.95735 45.4136C7.6277 45.568 8.64806 45.6926 11.3257 45.5884C12.5327 45.5391 13.32 45.4433 15.2559 45.2109C20.9064 44.532 20.483 44.5952 20.8609 44.5413C22.0586 44.3683 22.145 44.332 28.3693 43.1463C33.3737 42.1959 32.9809 41.5905 35.2603 41.2408C42.194 40.176 48.7823 43.4811 48.824 43.3267C48.8296 43.3053 48.7043 43.2681 48.2066 42.9761C48.1491 42.9417 48.046 42.8831 47.5688 42.5837C47.0915 42.2842 47.0451 42.2545 46.8037 42.1057C46.5623 41.9569 46.3349 41.8165 46.0517 41.6537C45.9533 41.596 45.4807 41.3245 44.8159 40.9916C44.4974 40.8325 44.2876 40.7275 43.9803 40.5926C43.4854 40.3759 43.0806 40.2327 42.816 40.1397C42.6303 40.0746 42.4372 40.0067 42.1754 39.9277C41.934 39.8542 41.5496 39.7417 41.0733 39.6487C40.5459 39.5396 40.0123 39.4635 39.4755 39.4208C39.0079 39.3706 38.5364 39.3706 38.0689 39.4208C37.7959 39.4543 37.5341 39.5138 37.5183 39.5138C37.2676 39.5678 37.1246 39.6143 36.7588 39.7184C36.5341 39.7817 36.3085 39.8403 36.0829 39.9044C35.0523 40.1834 33.4619 40.4178 33.4619 40.4178C32.5334 40.5526 31.1092 40.7228 29.0981 40.8177C28.27 40.8567 27.5309 40.866 26.051 40.8828C23.1486 40.9162 20.9965 40.8893 20.497 40.8828C19.8406 40.8744 18.3105 40.8502 16.3282 40.7842C13.9282 40.7042 12.7008 40.6614 11.3805 40.5154C9.52359 40.3099 8.07707 40.017 7.76696 39.9574C6.7206 39.7435 5.53218 39.4534 4.62137 39.2321C4.14879 39.1167 3.91203 39.0591 3.81826 39.0312C2.91116 38.7615 1.89915 38.4611 0.855568 37.8222C0.609528 37.6632 0.323566 37.4679 0.144374 37.5786Z" fill="url(#paint1_linear_311_859)"/>
<path d="M28.7286 68.9149C28.1715 69.3362 28.5197 69.0758 27.1744 70.1239C27.0518 70.2169 26.803 70.4112 26.5059 70.6893C26.2658 70.9241 26.0438 71.1768 25.842 71.4454C25.6749 71.6518 25.5811 71.7811 25.6006 71.9438C25.6242 72.0703 25.6941 72.1834 25.7965 72.261C26.0259 72.4525 26.3267 72.4293 26.5059 72.4125C26.6089 72.4023 27.0017 72.3558 27.4863 72.0043C27.7407 71.8183 27.6971 71.7857 28.2857 71.1887C28.4538 71.0167 28.6395 70.8372 29.0099 70.4782C29.5039 69.9993 29.5178 69.9955 29.5828 69.9044C29.7137 69.7184 29.6524 69.7435 30.0052 68.8619C30.1333 68.5411 30.2011 68.1998 30.307 67.8715C30.3181 67.8352 30.3627 67.6976 30.3292 67.6781C30.3097 67.6669 30.2745 67.6976 30.2002 67.7599C29.8669 68.0389 30.0386 67.8873 29.9885 67.9366C29.8279 68.0928 29.1232 68.622 28.7286 68.9149Z" fill="url(#paint2_linear_311_859)"/>
<g opacity="0.8">
<g opacity="0.8">
<path opacity="0.8" d="M37.8804 59.5501C37.1639 59.9253 36.3823 60.1595 35.5778 60.2402C35.3921 60.2402 35.1619 60.255 34.8908 60.2792C34.745 60.2922 34.5927 60.3062 34.3894 60.3359C34.3198 60.3462 34.0486 60.3871 33.6903 60.4736C33.5798 60.4996 33.4637 60.5275 33.3105 60.574C32.9259 60.6975 32.5484 60.8422 32.1797 61.0074L32.0775 61.0492C32.0149 61.0765 31.9507 61.1001 31.8854 61.1199C31.8557 61.1308 31.8241 61.1356 31.7925 61.1339C31.7603 61.1343 31.7289 61.1231 31.7043 61.1022C31.6597 61.053 31.6987 60.9525 31.7266 60.879C31.7471 60.8286 31.7719 60.7801 31.8009 60.734C31.8742 60.6075 31.9392 60.5164 31.9531 60.4959C32.0376 60.3769 32.1073 60.2894 32.1258 60.2671C32.396 59.9333 32.6541 59.6608 32.6541 59.6608C32.9391 59.3604 33.1638 59.1233 33.5241 58.7754C33.7404 58.5662 34.0152 58.3021 34.3838 57.9822C34.7069 57.7032 35.1442 57.3461 35.6902 56.9592C35.7626 57.4512 35.7375 57.6195 35.6846 57.6585C35.6799 57.6585 35.6521 57.6753 35.6595 57.693C35.7282 57.8427 36.1683 57.8008 35.485 58.3188C35.1294 58.5439 36.6836 57.9255 36.328 58.1514C36.0392 58.5234 37.6278 57.9915 37.3363 58.3504C37.0253 58.6769 36.315 59.1279 36.7607 59.1019C36.7755 59.1353 36.419 59.3613 36.4348 59.3948C37.0386 59.462 37.6489 59.4447 38.248 59.3437C38.1304 59.4143 38.0079 59.4832 37.8804 59.5501Z" fill="url(#paint3_linear_311_859)"/>
</g>
</g>
<g opacity="0.9">
<g opacity="0.9">
<path opacity="0.9" d="M63.2494 50.0616C63.2494 50.0616 65.6364 48.5736 66.0951 47.8046C66.1927 47.6452 66.3083 47.4976 66.4396 47.3647C66.4816 47.3177 66.5283 47.275 66.5788 47.2373C66.5955 47.2373 66.5853 47.2373 66.5584 47.2317C66.5289 47.2341 66.4999 47.2403 66.4721 47.2503C66.4396 47.3293 66.2502 47.4586 66.1007 47.6102C65.7729 47.9059 65.3978 48.2268 65.5845 48.0575L65.863 47.8073L65.8296 47.838L65.7107 47.9431L65.448 48.1691C65.1472 48.4239 64.9002 48.6127 64.7191 48.742L64.5827 48.835C64.5302 48.8664 64.485 48.9085 64.4499 48.9587C64.4332 49.0024 64.3635 48.9819 64.3171 48.9921H64.2791H64.2707L64.3273 48.9996L64.3385 48.9921L64.3608 48.9782L64.4443 48.927C64.4954 48.8954 64.5669 48.8536 64.6653 48.7987C64.7962 48.7234 64.6272 48.8192 64.5669 48.8498L64.331 48.9717C64.0672 49.0949 63.7973 49.2048 63.5224 49.3009C62.723 49.5901 62.5512 49.5734 62.9551 49.2934C63.3794 49.0303 63.0015 49.1195 63.1408 48.9605C63.2206 48.8247 63.0414 48.8192 63.1148 48.6694C63.3933 48.4379 63.5084 48.2677 63.4258 48.1579C63.345 48.1629 63.2654 48.1805 63.19 48.21C63.0628 48.2547 63.0971 48.2007 63.0405 48.21C63.2104 48.0138 63.8557 47.6018 63.6663 47.5758C63.6208 47.5656 63.3116 47.6688 63.0294 47.8232C61.6116 48.5774 60.569 49.1642 59.6359 49.6831C58.7798 50.1648 58.7863 50.2225 58.5793 50.3908C58.3212 50.6121 56.5525 51.4445 54.82 52.2247C53.4719 52.8245 51.3569 53.7378 51.4776 53.7889C51.7236 53.8354 52.8461 53.5183 52.276 54.014C51.8257 54.3916 51.4098 54.758 51.2826 55.0723C51.1773 55.179 51.094 55.3054 51.0375 55.4443C51.1851 55.5261 51.2037 55.7233 51.3504 55.8358C51.4971 55.9483 51.797 55.993 52.4729 55.7428C52.5948 55.7533 52.7127 55.7918 52.8173 55.8553C52.853 55.8781 52.8871 55.9033 52.9194 55.9307L52.9649 55.9679L53.0494 56.0302C53.1553 56.0004 53.3391 55.9493 53.5684 55.8869C54.0327 55.7605 54.2267 55.7112 54.3623 55.6749C55.3223 55.4127 56.2071 54.9542 56.8496 54.6213L56.9025 54.5943C57.3667 54.3534 58.0733 53.9591 59.4474 52.9919C62.1065 51.1227 61.5865 51.1004 63.2494 50.0616Z" fill="url(#paint4_linear_311_859)"/>
<path opacity="0.9" d="M58.6118 50.3824C58.8197 50.2132 58.8123 50.1564 59.6693 49.6738C60.6033 49.1539 61.645 48.5671 63.0628 47.8138C63.3413 47.6623 63.6542 47.5562 63.6988 47.5665C63.89 47.5925 63.2438 48.0045 63.0748 48.2016C63.1278 48.2016 63.0971 48.25 63.2243 48.2016C63.3 48.1719 63.3799 48.1543 63.4611 48.1496C63.5428 48.2593 63.4267 48.4286 63.1491 48.6611C63.0758 48.8117 63.254 48.8164 63.1751 48.9521C63.0312 49.1112 63.41 49.021 62.9838 49.2851C62.5809 49.5641 62.7527 49.5808 63.5511 49.2906C63.76 49.2144 64.0488 49.1046 64.3589 48.9586L64.5947 48.8368L64.7145 48.7717L64.7033 48.7782L64.6551 48.8071C64.5622 48.8582 64.4861 48.9001 64.4359 48.9335L64.3533 48.9847L64.3301 48.9986H64.3245L64.2679 48.9912H64.2809H64.319C64.3672 48.9828 64.4322 48.9968 64.4499 48.954C64.4875 48.9009 64.5363 48.8568 64.5929 48.8247L64.4517 48.9177C64.3171 49.0024 64.1509 49.1446 63.9234 49.2897C63.8009 49.3548 63.6588 49.4162 63.514 49.4859L63.4035 49.538L63.3914 49.5575H63.384C63.3682 49.5417 63.4044 49.5808 63.4007 49.5771L63.3738 49.592L63.3199 49.6217L63.0971 49.7417C62.7926 49.9035 62.4583 50.0662 62.1176 50.2141C61.4891 50.4869 60.847 50.7272 60.1939 50.9339C59.6572 51.105 59.2998 51.2055 59.2998 51.2055C59.2998 51.2055 59.089 50.9469 58.9284 50.7405C58.8324 50.613 58.7265 50.4933 58.6118 50.3824Z" fill="url(#paint5_linear_311_859)"/>
<path opacity="0.9" d="M64.4536 48.9531L64.5167 48.8815L64.7173 48.741L64.929 48.5839L64.9958 48.5337C64.9958 48.5337 65.0218 48.5132 64.9958 48.5337L64.6068 48.835C64.6068 48.835 63.164 49.9621 61.5615 50.9916C60.7593 51.5049 59.932 52.0043 59.2403 52.3177C58.8838 52.4665 58.6238 52.6274 58.4131 52.7223C58.1624 52.7762 58.0333 52.8273 57.9776 52.7957L57.8022 52.7195C57.6984 52.6704 57.5889 52.6348 57.4763 52.6134C57.6153 52.4994 57.7457 52.375 57.8662 52.2415C58.0129 52.0713 58.0668 51.9299 57.661 52.0015C57.661 52.0015 57.1225 52.0015 56.7326 51.955C56.3426 51.9085 56.0947 51.8369 56.5896 51.6156C56.6848 51.523 56.788 51.439 56.8978 51.3645C57.1702 51.1708 57.4577 50.9995 57.7576 50.8521C57.7576 50.8521 58.2534 50.6168 58.7139 50.3871C59.1744 50.1574 59.6006 49.9147 59.4669 49.9277L60.4761 49.3148C60.9997 49.0005 61.568 48.6713 61.7759 48.6722C61.7759 48.6722 62.2829 48.5476 62.4258 48.5523C62.335 48.7623 62.2186 48.9603 62.0795 49.1419C61.853 49.4404 61.5382 49.7566 61.2263 49.9109C61.2263 49.9109 60.6692 50.3499 60.893 50.4996C61.0044 50.5694 61.3126 50.5619 61.9384 50.3136C62.3419 50.1476 62.7342 49.9556 63.1129 49.7389L63.294 49.6357L63.3413 49.6087L63.3645 49.5948L63.3766 49.5882H63.3822C63.3478 49.551 63.3747 49.5771 63.3673 49.5687L63.4676 49.5157L63.8891 49.2869L64.3533 49.0303C64.3728 49.0191 64.3942 49.0079 64.4127 48.9949C64.4313 48.9819 64.4127 48.9949 64.4202 48.9884L64.4285 48.9782L64.4536 48.9531Z" fill="url(#paint6_linear_311_859)"/>
<path opacity="0.9" d="M64.4675 48.9373L64.5093 48.887L64.6634 48.7792C64.786 48.6927 64.9707 48.5551 65.1063 48.4462L65.2326 48.3449L65.3644 48.237C65.3644 48.237 65.3895 48.2156 65.3644 48.237L65.3068 48.2854L65.188 48.3849L64.941 48.5997C64.2577 49.1912 63.4834 49.9621 62.7889 50.5247C62.7889 50.5247 62.4481 50.8037 61.9096 51.2064C61.3711 51.6091 60.6247 52.142 59.8095 52.6376C59.0269 53.1255 58.2 53.538 57.3398 53.8698C57.1594 53.9417 56.973 53.9974 56.7827 54.0363C56.6899 54.053 56.597 54.0661 56.5116 54.0754C56.4342 54.0755 56.3574 54.0897 56.2851 54.1172L56.1217 54.1795L56.0492 54.2046L56.0325 54.2102H56.0251H56.0186C56.0585 54.2521 55.9629 54.1526 55.9722 54.1628H55.9313C55.8414 54.1611 55.7528 54.1405 55.6714 54.1023C55.6714 54.1023 55.6546 54.0819 55.4968 54.1135C55.1503 54.198 54.8092 54.3036 54.4755 54.4297C54.4755 54.4297 54.119 54.4613 53.9379 54.3832C53.7569 54.3051 53.7374 54.1042 54.3947 53.6848L55.1821 53.018C55.56 52.6999 55.8988 52.407 55.6881 52.42C55.6881 52.42 55.9666 52.2647 56.1727 52.1345C56.3788 52.0043 56.5237 51.8964 56.2461 51.9736C56.6346 51.9239 57.0261 51.9015 57.4178 51.9067C57.9321 51.9253 58.3128 52.0183 57.7084 52.4116C57.6598 52.4579 57.6185 52.5112 57.5858 52.5697C57.5478 52.6525 57.557 52.7455 57.7251 52.7623C57.8931 52.779 58.2385 52.7306 58.8281 52.4833C59.0946 52.3345 59.4854 52.1978 59.9181 51.9718C60.3508 51.7458 60.8466 51.4528 61.4259 51.0855C61.4259 51.0855 62.2615 50.5108 63.1686 49.8514L64.5177 48.8796C64.6699 48.7717 64.6151 48.8117 64.6105 48.8173L64.5678 48.8471C64.5275 48.8685 64.4931 48.8994 64.4675 48.9373Z" fill="url(#paint7_linear_311_859)"/>
</g>
</g>
<g opacity="0.9">
<g opacity="0.9">
<path opacity="0.9" d="M69.275 38.9819C69.275 38.9698 69.3094 38.9438 69.6603 38.6211C69.846 38.4537 69.9389 38.369 69.9862 38.3225C70.0336 38.276 70.2035 38.1263 70.4588 37.9041C70.6445 37.7432 70.8636 37.5544 70.9778 37.4586C71.3827 37.1256 71.8071 36.8172 72.2488 36.5351C72.7349 36.222 73.2421 35.9433 73.7669 35.7009C74.2614 35.4655 74.7776 35.2787 75.3081 35.143C76.138 34.9174 77.0074 34.879 77.8539 35.0304C78.177 35.0797 78.2643 35.0658 78.3181 35.1374C78.5577 35.4526 77.7917 36.4124 77.6682 36.5723C75.6971 39.0405 71.6045 39.3018 70.5043 39.1939C70.2285 39.166 69.2722 39.073 69.275 38.9819Z" fill="url(#paint8_linear_311_859)"/>
</g>
</g>
<path d="M62.1715 6.61976C61.1279 4.13673 60.5931 3.52016 60.7324 3.41321C61.0322 3.18444 63.7842 5.73814 64.2205 7.97008C64.2995 8.36997 64.3728 9.11395 64.4564 9.95929C64.5761 11.1683 64.5492 11.3254 64.4824 11.3459C64.28 11.411 63.708 10.1667 63.2522 9.17997C62.7536 8.0947 62.5623 7.55066 62.1715 6.61976Z" fill="url(#paint9_linear_311_859)"/>
<path opacity="0.73" d="M21.2611 49.6357C20.3679 49.4376 19.0105 49.0228 17.2186 49.2348C16.5965 49.3092 16.0627 49.4413 13.6227 49.844C13.2699 49.9026 12.918 49.9667 12.5661 50.03C11.1735 50.269 10.8782 50.2745 10.8671 50.3703C10.8457 50.5563 11.8884 50.8567 13.0851 51.0994C14.4444 51.3784 15.942 51.6779 18.1229 51.6118C23.2545 51.4556 33.0988 49.2283 33.0144 48.8508C32.9382 48.516 25.4363 50.5628 21.2611 49.6357Z" fill="url(#paint10_linear_311_859)"/>
<path d="M58.401 17.6083C58.4015 17.6046 58.4015 17.6009 58.401 17.5972C58.401 17.5841 58.414 17.5042 58.4196 17.4512C58.4251 17.398 58.4276 17.3446 58.427 17.2912C58.4267 16.7721 58.3994 16.2534 58.3453 15.7372C58.2813 15.156 58.3221 15.2722 58.2441 14.3934C58.1383 13.1993 57.9897 12.1484 57.9312 11.8006C57.5441 9.49338 55.5423 7.52276 55.9267 7.14054C56.2145 6.85411 57.5905 7.69853 58.3518 8.36532C59.0881 9.007 59.4762 9.51849 59.5941 9.70262C59.8504 10.1211 60.0534 10.57 60.1985 11.039C60.9849 13.7294 58.4493 17.6288 58.401 17.6083Z" fill="url(#paint11_linear_311_859)"/>
<path d="M60.1827 0.0243925C60.222 0.00273464 60.2676 -0.00481244 60.3118 0.0030028C60.3884 0.0133087 60.4624 0.0379131 60.53 0.0755406C60.6078 0.11723 60.6826 0.16447 60.7537 0.216897C60.8382 0.278275 60.8986 0.330354 60.9561 0.379642C61.0332 0.44567 61.088 0.497749 61.1483 0.555407C61.1483 0.555407 61.2718 0.672584 61.4027 0.81022L61.5132 0.928326L61.5773 0.998074C61.7555 1.19523 61.8966 1.36355 61.8966 1.36355C61.9505 1.42679 61.9951 1.48166 62.0433 1.54118L62.1529 1.67602C62.268 1.81924 62.4806 2.09265 62.5958 2.24517C63.06 2.85802 63.5456 3.61874 63.5456 3.61874C63.9745 4.28739 64.28 4.83328 64.4332 5.1132C64.5687 5.36058 64.7878 5.77256 65.0376 6.2952C65.1629 6.55652 65.448 7.16473 65.7655 7.96915C66.1638 8.98282 66.4033 9.77981 66.473 10.0151C66.7557 10.9938 66.9848 11.9872 67.1591 12.991C67.2241 13.3388 67.2993 13.7424 67.3801 14.2883C67.5658 15.5587 67.6243 16.5556 67.6465 17.0327C67.7004 18.2351 67.68 19.658 67.5955 19.6626C67.511 19.6673 67.4859 18.6136 67.2306 16.8727C67.0016 15.23 66.6493 13.607 66.1768 12.0173C66.0171 11.4937 65.8054 10.8177 65.4628 9.97138C64.0813 6.58628 62.3516 5.74466 60.7482 2.29818C60.4167 1.58582 60.1985 0.996214 60.0899 0.692113C60.0597 0.528913 60.055 0.362011 60.0759 0.197367V0.189927C60.0902 0.123575 60.1282 0.0647232 60.1827 0.0243925Z" fill="url(#paint12_linear_311_859)"/>
<path d="M56.2841 16.0785C56.2266 15.9055 56.1783 15.7837 56.1115 15.6135C56.0622 15.4898 55.9722 15.2639 55.8441 14.9858C55.8088 14.9114 55.7512 14.7998 55.6788 14.624C55.6259 14.505 55.6704 14.6017 55.5729 14.372C55.5729 14.372 55.4485 14.0791 55.4801 13.9517C55.4844 13.9358 55.4906 13.9205 55.4987 13.9061C55.5051 13.895 55.5133 13.885 55.5228 13.8763C55.5375 13.8637 55.555 13.8547 55.5739 13.8503C55.5829 13.8471 55.5922 13.845 55.6017 13.8438C55.6413 13.8396 55.6812 13.8427 55.7196 13.8531C55.7941 13.8756 55.8665 13.9046 55.936 13.9396C56.0084 13.9767 56.0787 14.0177 56.1467 14.0623C56.275 14.149 56.3969 14.2447 56.5116 14.3488C56.657 14.4771 56.7955 14.6131 56.9266 14.7561C57.1326 14.9736 57.319 15.2088 57.4837 15.4592C57.702 15.7976 57.8775 16.1618 58.0064 16.5435C58.0993 16.8002 58.1745 17.0875 58.1921 17.1647C58.1921 17.1647 58.2432 17.3507 58.285 17.5302C58.4706 18.3746 57.2135 20.0002 57.2135 20.0002C55.988 21.5812 54.6334 22.9678 54.5619 22.9036C54.5526 22.8952 54.5758 22.8738 54.6668 22.6906C54.768 22.487 54.9249 22.1708 55.0911 21.8146C55.2396 21.4947 55.3483 21.2464 55.4151 21.0939C55.4495 21.0139 55.5599 20.7609 55.6658 20.5033C55.7911 20.1983 55.962 19.7807 56.1384 19.2423C56.3008 18.7673 56.4201 18.2786 56.4949 17.7822C56.5149 17.6337 56.5242 17.4839 56.5228 17.334C56.5184 17.1295 56.4951 16.9259 56.4531 16.7258C56.4114 16.5065 56.355 16.2902 56.2841 16.0785Z" fill="url(#paint13_linear_311_859)"/>
<path d="M65.9985 11.4166C66.1503 11.9073 66.2743 12.4063 66.3699 12.911C66.9502 15.9892 66.9028 21.9476 66.472 21.9634C66.1007 21.9764 66.5788 17.6092 64.4294 11.7114C63.3385 8.71313 61.969 6.41888 62.3367 6.18453C62.6301 5.99854 63.7953 7.28469 64.3951 8.09377C65.356 9.38922 65.7701 10.6847 65.9985 11.4166Z" fill="url(#paint14_linear_311_859)"/>
<path d="M58.3713 17.6957C58.3924 17.6379 58.4101 17.5789 58.4242 17.519C58.5895 16.8476 58.4456 16.3612 58.3314 15.4034C58.3184 15.2973 58.2877 15.0388 58.2617 14.7431C58.2506 14.6194 58.2552 14.6389 58.193 14.1126C58.1717 13.9266 57.9962 12.4507 57.9294 12.0024C57.571 9.59195 56.0817 8.09656 56.3881 7.75154C56.6277 7.48278 57.7307 8.23605 58.3379 8.83217C58.9256 9.40875 59.231 9.87188 59.3239 10.0411C59.5291 10.4261 59.685 10.8354 59.7881 11.2594C60.2923 13.4644 58.3778 17.6967 58.3713 17.6957Z" fill="url(#paint15_linear_311_859)"/>
<path opacity="0.73" d="M24.9043 50.1964C21.1376 50.3648 19.5026 49.2246 15.7795 49.9342C14.5799 50.163 13.3943 50.5405 13.4185 50.7963C13.4472 51.1022 15.2039 51.3068 16.3412 51.4361L16.5585 51.4603C17.5993 51.5728 18.4627 51.6072 19.1832 51.6212C20.2658 51.6426 21.2732 51.6212 21.7597 51.5979C25.2376 51.4175 29.7676 49.6319 29.6886 49.3716C29.6422 49.2079 27.9246 50.0625 24.9043 50.1964Z" fill="url(#paint16_linear_311_859)"/>
<path d="M9.67124 48.3309C7.13192 47.8817 5.86459 47.6576 4.91107 47.2921C4.54526 47.1517 3.47475 46.7202 3.37541 46.8923C3.33641 46.9592 3.46825 47.1071 3.58059 47.2196C4.51833 48.1719 5.84973 48.6322 6.12827 48.7262C6.66308 48.9111 7.2092 49.0615 7.76327 49.1763C10.9822 49.7631 17.8834 48.0324 17.8054 47.7339C17.7497 47.5116 13.8632 49.073 9.67124 48.3309Z" fill="url(#paint17_linear_311_859)"/>
<path opacity="0.85" d="M10.0816 48.4462C7.99165 48.184 6.94714 48.0529 5.885 47.6372C5.51362 47.4921 4.75321 47.1675 4.66408 47.2996C4.57495 47.4316 5.1868 47.9292 5.24065 47.9729C6.10504 48.6797 7.27025 49.0061 9.01481 49.1028C9.45118 49.127 10.9218 49.1958 13.4862 48.8006C15.6319 48.4723 17.3857 48.0045 17.3709 47.9292C17.3514 47.8129 13.775 48.9066 10.0816 48.4462Z" fill="url(#paint18_linear_311_859)"/>
<path opacity="0.85" d="M11.9171 48.3607C9.81142 48.3467 8.76041 48.3402 7.65462 48.0519C7.27025 47.9515 6.47549 47.7199 6.40214 47.8659C6.3288 48.0119 6.99542 48.4295 7.05206 48.4667C7.99351 49.0665 9.1875 49.2534 10.933 49.1428C11.3694 49.1158 12.8382 49.0079 15.3376 48.316C17.4303 47.7357 19.1154 47.0652 19.0932 46.9908C19.0616 46.8746 15.6393 48.3858 11.9171 48.3607Z" fill="url(#paint19_linear_311_859)"/>
<path d="M58.401 17.6083C58.3954 17.6083 58.4066 17.5832 58.4242 17.5153C58.458 17.3718 58.4742 17.2247 58.4725 17.0773C58.4595 13.5527 57.8922 11.4166 57.8922 11.4166C57.7631 10.9367 57.6554 10.6038 57.7706 10.5322C57.9804 10.401 58.8466 11.1887 59.3397 12.1131C60.2031 13.735 59.7231 15.4006 59.6637 15.5968C59.3007 16.7918 58.4391 17.6306 58.401 17.6083Z" fill="url(#paint20_linear_311_859)"/>
<path opacity="0.85" d="M1.58904 39.7119C1.35415 39.9147 1.77473 40.7656 2.12383 41.4668C2.46457 42.1522 2.98915 43.2096 4.14971 44.1191C4.45053 44.3553 5.44026 45.0881 7.2656 45.4517C9.2367 45.8442 10.7686 45.5243 13.3618 44.9309C16.5678 44.1972 20.5452 43.2877 20.5053 43.1045C20.4654 42.9213 17.0552 43.8484 12.6562 43.6104C11.8282 43.5667 11.003 43.481 10.1837 43.3537C9.04637 43.177 7.47264 42.9306 5.89335 42.2656C3.20919 41.1366 1.94557 39.4041 1.58904 39.7119Z" fill="url(#paint21_linear_311_859)"/>
<path opacity="0.85" d="M4.91753 47.2168C4.87575 47.3451 5.77728 47.7422 5.92211 47.8064C7.53948 48.5197 9.15127 48.6434 10.193 48.6313C12.061 48.6127 13.4324 48.1524 14.3822 47.825C15.604 47.4037 16.8611 46.7965 16.8119 46.6505C16.7627 46.5044 15.4833 46.9536 13.1334 47.2838C11.9849 47.4484 11.0834 47.5767 9.84018 47.5739C7.49863 47.5674 6.04838 47.3256 6.04838 47.3256C5.56188 47.2391 4.95003 47.1154 4.91753 47.2168Z" fill="url(#paint22_linear_311_859)"/>
<path d="M62.8418 4.1544C63.6263 5.3178 64.6207 6.81134 65.5343 9.05722C67.1405 13.005 67.5119 16.8513 67.29 19.2097C67.1934 20.1492 67.0349 21.0812 66.8156 21.9997C66.6272 22.7563 66.3912 23.5002 66.109 24.2269C65.3727 26.1362 64.3329 27.9227 64.1788 27.8538C64.0711 27.8055 64.5065 26.9053 65.0264 24.9439C65.429 23.4418 65.7155 21.9109 65.8834 20.3648C65.9883 19.3678 66.0217 18.5448 66.0282 18.2026C66.0867 14.9188 64.3468 12.6079 62.0247 6.97501C61.7852 6.39099 59.9562 1.65184 60.4835 1.38494C60.8512 1.19895 62.2253 3.24489 62.8418 4.1544Z" fill="url(#paint23_linear_311_859)"/>
<path d="M3.65858 73.349V78.4183H6.51449C6.7038 78.4053 6.89097 78.4648 7.03814 78.5848C7.09763 78.6366 7.14508 78.7008 7.17715 78.773C7.20923 78.8451 7.22516 78.9234 7.22383 79.0023C7.22641 79.0807 7.21159 79.1586 7.18044 79.2305C7.1493 79.3024 7.10259 79.3664 7.04371 79.418C6.89353 79.5337 6.70626 79.5903 6.51728 79.5771H3.11357C2.80626 79.5771 2.58621 79.5092 2.45159 79.3734C2.31696 79.2376 2.25011 79.0163 2.25011 78.7122V73.349C2.25011 73.0635 2.31418 72.8506 2.4423 72.7074C2.50584 72.637 2.58397 72.5814 2.67122 72.5444C2.75846 72.5075 2.85272 72.4901 2.94738 72.4935C3.04328 72.4898 3.13884 72.5069 3.22759 72.5434C3.31634 72.58 3.39619 72.6353 3.46174 72.7055C3.59358 72.8459 3.65858 73.0608 3.65858 73.349Z" fill="#F6774D"/>
<path d="M11.6702 77.3777H9.13737C9.13461 77.6478 9.19536 77.9148 9.3147 78.157C9.41308 78.3631 9.56841 78.5366 9.76227 78.6569C9.95613 78.7773 10.1804 78.8394 10.4084 78.8359C10.5517 78.8376 10.6944 78.8194 10.8327 78.7819C10.9641 78.7431 11.0891 78.6854 11.2041 78.6108C11.3206 78.5354 11.4317 78.4518 11.5365 78.3607C11.6374 78.272 11.7686 78.1517 11.9302 77.9998C12.0115 77.938 12.1124 77.9076 12.2143 77.9143C12.3316 77.9087 12.4468 77.9479 12.5364 78.024C12.5785 78.0631 12.6115 78.1111 12.6328 78.1645C12.6542 78.2179 12.6634 78.2754 12.6599 78.3328C12.6507 78.4794 12.6033 78.6211 12.5225 78.7438C12.4136 78.9189 12.2728 79.0719 12.1075 79.1949C11.8968 79.3528 11.6611 79.4741 11.4102 79.5538C11.0985 79.6535 10.7727 79.7016 10.4456 79.6961C9.61367 79.6961 8.96684 79.4587 8.50509 78.9837C8.04334 78.5088 7.81247 77.8644 7.81247 77.0503C7.80933 76.6877 7.86708 76.3271 7.9833 75.9837C8.08858 75.6706 8.25846 75.3832 8.48188 75.1402C8.70633 74.9016 8.98187 74.7172 9.28778 74.6008C9.62714 74.473 9.98739 74.4099 10.3499 74.4148C10.8042 74.4024 11.2533 74.5133 11.6498 74.7356C11.9932 74.9302 12.275 75.2177 12.4631 75.5652C12.6377 75.8823 12.7305 76.2381 12.7333 76.6002C12.7333 76.9263 12.6404 77.1377 12.4547 77.2345C12.269 77.3312 12.0075 77.3789 11.6702 77.3777ZM9.13737 76.6411H11.4845C11.4529 76.1979 11.3338 75.8662 11.127 75.6461C11.0218 75.5359 10.8943 75.4495 10.7531 75.3926C10.6119 75.3357 10.4602 75.3095 10.3081 75.3159C10.1596 75.3114 10.0118 75.3389 9.87482 75.3967C9.73784 75.4545 9.61489 75.5411 9.51432 75.6507C9.30697 75.8739 9.18132 76.2041 9.13737 76.6411Z" fill="#F6774D"/>
<path d="M13.8279 78.9075V73.2821C13.8279 73.0229 13.8855 72.8267 14.0006 72.6934C14.0583 72.6277 14.1299 72.5757 14.2102 72.5411C14.2905 72.5065 14.3775 72.4903 14.4648 72.4935C14.5533 72.4901 14.6414 72.5059 14.7232 72.54C14.8049 72.574 14.8783 72.6254 14.9383 72.6906C15.059 72.8227 15.1194 73.0198 15.1194 73.2821V78.9075C15.1194 79.1704 15.0575 79.3675 14.9337 79.499C14.8737 79.5637 14.8006 79.6149 14.7192 79.6489C14.6379 79.6829 14.5502 79.699 14.462 79.6961C14.3742 79.6994 14.2869 79.6826 14.2065 79.6472C14.1261 79.6118 14.0547 79.5585 13.9978 79.4915C13.872 79.3241 13.8116 79.1164 13.8279 78.9075Z" fill="#F6774D"/>
<path d="M20.0745 77.3777H17.5417C17.5388 77.6479 17.5999 77.915 17.72 78.157C17.8181 78.3631 17.9732 78.5366 18.167 78.657C18.3607 78.7773 18.5848 78.8394 18.8127 78.8359C18.956 78.8376 19.0988 78.8194 19.2371 78.7819C19.3685 78.7432 19.4936 78.6856 19.6084 78.6108C19.7253 78.5358 19.8364 78.4522 19.9408 78.3607C20.0423 78.272 20.1735 78.1517 20.3345 77.9998C20.4159 77.9381 20.5167 77.9077 20.6186 77.9143C20.7363 77.9085 20.8518 77.9477 20.9417 78.024C20.9836 78.0632 21.0164 78.1112 21.0378 78.1646C21.0591 78.218 21.0685 78.2754 21.0652 78.3328C21.0555 78.4795 21.0079 78.6212 20.9268 78.7438C20.8185 78.9193 20.6776 79.0724 20.5118 79.1949C20.3013 79.3526 20.066 79.4739 19.8155 79.5538C19.5035 79.6535 19.1773 79.7016 18.8499 79.6961C18.018 79.6961 17.3715 79.4587 16.9104 78.9837C16.4492 78.5088 16.2183 77.8644 16.2177 77.0503C16.2141 76.6877 16.2719 76.327 16.3886 75.9837C16.4931 75.6705 16.6627 75.383 16.8862 75.1402C17.1107 74.9016 17.3862 74.7172 17.6921 74.6008C18.0318 74.4729 18.3923 74.4098 18.7552 74.4148C19.2094 74.4023 19.6586 74.5131 20.055 74.7356C20.3985 74.9302 20.6803 75.2177 20.8683 75.5652C21.0429 75.8823 21.1358 76.2381 21.1385 76.6002C21.1385 76.9263 21.0457 77.1378 20.86 77.2345C20.6743 77.3312 20.4125 77.3789 20.0745 77.3777ZM17.5417 76.6411H19.8898C19.8582 76.1979 19.7387 75.8662 19.5314 75.6461C19.4263 75.536 19.2989 75.4496 19.1579 75.3927C19.0169 75.3358 18.8653 75.3096 18.7134 75.3159C18.5647 75.3113 18.4167 75.3388 18.2796 75.3966C18.1425 75.4544 18.0194 75.541 17.9187 75.6507C17.7119 75.8739 17.5863 76.2041 17.5417 76.6411Z" fill="#F6774D"/>
<path d="M25.4577 79.1019L24.3148 77.2205L23.6128 77.8864V78.9168C23.6196 79.0213 23.6057 79.1261 23.5719 79.2252C23.5382 79.3243 23.4852 79.4158 23.416 79.4943C23.3586 79.5576 23.2887 79.6083 23.2107 79.643C23.1327 79.6778 23.0483 79.6958 22.9629 79.6961C22.8746 79.7004 22.7865 79.6846 22.7052 79.65C22.6238 79.6154 22.5513 79.5628 22.4931 79.4962C22.3799 79.3632 22.3223 79.167 22.3223 78.9075V73.3779C22.3223 73.0896 22.3777 72.8701 22.4885 72.7195C22.5429 72.6456 22.6147 72.5863 22.6974 72.5469C22.7802 72.5075 22.8714 72.4891 22.9629 72.4935C23.0523 72.4897 23.1413 72.5061 23.2235 72.5415C23.3056 72.5769 23.3787 72.6305 23.4374 72.6981C23.5544 72.8345 23.6128 73.0356 23.6128 73.3016V76.4468L25.0687 74.917C25.1955 74.776 25.3337 74.6457 25.4818 74.5273C25.5827 74.4554 25.7043 74.4185 25.8281 74.4222C25.9022 74.42 25.976 74.4325 26.0452 74.4592C26.1144 74.4859 26.1776 74.5261 26.2311 74.5775C26.2838 74.6269 26.3255 74.6869 26.3533 74.7536C26.3812 74.8203 26.3946 74.8921 26.3926 74.9644C26.3926 75.1541 26.2168 75.4074 25.8653 75.7242L25.1782 76.3566L26.5059 78.4462C26.6043 78.6015 26.6739 78.7196 26.7167 78.8005C26.7566 78.871 26.7786 78.9502 26.7807 79.0312C26.7908 79.2091 26.7304 79.3839 26.6127 79.5176C26.5555 79.5771 26.4864 79.6238 26.4099 79.6546C26.3334 79.6854 26.2513 79.6995 26.1689 79.6961C26.1026 79.7004 26.0361 79.6912 25.9734 79.6692C25.9107 79.6471 25.8531 79.6127 25.804 79.5678C25.6743 79.4236 25.5584 79.2676 25.4577 79.1019Z" fill="#F6774D"/>
<path d="M43.9032 77.8287V78.9075C43.9032 79.1704 43.8413 79.3675 43.7175 79.499C43.6577 79.5634 43.5849 79.6143 43.5039 79.6483C43.4229 79.6823 43.3355 79.6986 43.2477 79.6961C43.1612 79.6985 43.0752 79.6818 42.9958 79.6473C42.9164 79.6127 42.8455 79.5612 42.7882 79.4962C42.6675 79.3632 42.608 79.167 42.608 78.9075V75.2964C42.608 74.7142 42.8182 74.4229 43.2385 74.4222C43.4539 74.4222 43.6098 74.491 43.7027 74.6268C43.8102 74.8094 43.8643 75.0185 43.8587 75.2304C43.9823 75.0035 44.1437 74.7994 44.3359 74.6268C44.5213 74.4834 44.7518 74.4108 44.9858 74.4222C45.2626 74.4237 45.5348 74.494 45.7778 74.6268C46.034 74.7632 46.1622 74.9439 46.1622 75.169C46.1642 75.2421 46.1507 75.3149 46.1225 75.3824C46.0943 75.4499 46.0521 75.5106 45.9987 75.5605C45.9056 75.6565 45.7786 75.712 45.645 75.7149C45.5276 75.6984 45.4123 75.6688 45.3015 75.6265C45.1463 75.5728 44.9838 75.5433 44.8196 75.5391C44.652 75.532 44.4874 75.5851 44.3554 75.6889C44.223 75.8081 44.1265 75.9621 44.0769 76.1334C44.0044 76.3608 43.9583 76.5957 43.9394 76.8336C43.9159 77.1046 43.9039 77.4363 43.9032 77.8287Z" fill="#F6774D"/>
<path d="M47.0627 74.5366H47.2048V73.7573C47.2048 73.549 47.2104 73.3853 47.2215 73.2663C47.2295 73.1584 47.2612 73.0536 47.3144 72.9594C47.3667 72.8693 47.442 72.7949 47.5325 72.7436C47.6292 72.6874 47.7392 72.6584 47.851 72.6599C48.018 72.6615 48.1779 72.7283 48.2967 72.8459C48.3837 72.9259 48.4426 73.0319 48.4647 73.1482C48.4922 73.3153 48.504 73.4847 48.5 73.6541V74.5375H48.9744C49.1258 74.5268 49.2757 74.5736 49.3941 74.6687C49.4413 74.7104 49.4788 74.762 49.5038 74.8199C49.5289 74.8777 49.5408 74.9404 49.5389 75.0035C49.5453 75.0781 49.529 75.1529 49.4922 75.2181C49.4555 75.2833 49.3999 75.3359 49.3328 75.3689C49.1464 75.448 48.9445 75.4836 48.7423 75.4731H48.4991V77.8585C48.497 78.0138 48.5041 78.169 48.5204 78.3235C48.5303 78.4218 48.5702 78.5146 48.6346 78.5894C48.6748 78.6267 48.7223 78.655 48.7741 78.6727C48.826 78.6903 48.8809 78.6968 48.9354 78.6917C49.0392 78.6885 49.1425 78.6751 49.2437 78.6517C49.3433 78.6285 49.445 78.6148 49.5473 78.6108C49.5998 78.6119 49.6517 78.6236 49.6995 78.6454C49.7474 78.6671 49.7904 78.6984 49.8258 78.7373C49.8671 78.7776 49.8996 78.8259 49.9214 78.8794C49.9431 78.9328 49.9536 78.9902 49.9521 79.0479C49.9521 79.2575 49.8382 79.4174 49.6104 79.5278C49.3826 79.6381 49.0555 79.6942 48.629 79.6961C48.2249 79.6961 47.9182 79.6279 47.7089 79.4915C47.5054 79.3623 47.3589 79.16 47.2995 78.9261C47.2262 78.6101 47.1935 78.286 47.202 77.9617V75.4722H47.0312C46.8772 75.4831 46.7247 75.4357 46.6041 75.3392C46.5566 75.2972 46.5189 75.2453 46.4935 75.1871C46.4682 75.129 46.4559 75.066 46.4574 75.0025C46.4557 74.9386 46.4687 74.8752 46.4955 74.8171C46.5222 74.7591 46.5619 74.708 46.6115 74.6677C46.7413 74.5712 46.9015 74.5246 47.0627 74.5366Z" fill="#F6774D"/>
<path d="M58.232 77.4865C58.2375 77.8888 58.1245 78.2837 57.9071 78.622C57.6737 78.9719 57.3432 79.2457 56.9563 79.4097C56.4873 79.6105 55.9807 79.7078 55.4708 79.6952C54.7844 79.6952 54.2183 79.5653 53.7727 79.3055C53.4601 79.1228 53.1959 78.8676 53.002 78.5615C52.8181 78.2932 52.7153 77.9774 52.7059 77.652C52.7051 77.5693 52.7209 77.4873 52.7525 77.4109C52.784 77.3344 52.8306 77.2651 52.8894 77.2071C52.9482 77.149 53.0181 77.1034 53.0949 77.073C53.1716 77.0425 53.2537 77.0279 53.3363 77.0299C53.4757 77.0263 53.6109 77.0773 53.7132 77.1722C53.8316 77.2917 53.9217 77.4363 53.9769 77.5953C54.0514 77.7915 54.1476 77.9786 54.2638 78.1533C54.375 78.3117 54.5241 78.4396 54.6974 78.5253C54.9276 78.6311 55.1796 78.6808 55.4327 78.6703C55.8505 78.6703 56.191 78.573 56.454 78.3783C56.574 78.2984 56.6724 78.19 56.7406 78.0628C56.8088 77.9356 56.8446 77.7936 56.8449 77.6492C56.8493 77.5461 56.833 77.4431 56.7967 77.3464C56.7605 77.2497 56.7052 77.1614 56.6341 77.0866C56.4813 76.9347 56.2944 76.8216 56.0891 76.7565C55.8651 76.6802 55.567 76.5993 55.195 76.5137C54.7638 76.4196 54.3433 76.2819 53.9398 76.1027C53.6221 75.9614 53.3461 75.7404 53.1385 75.461C52.9334 75.1656 52.8295 74.8116 52.8424 74.452C52.8362 74.0865 52.9457 73.7283 53.1552 73.429C53.3833 73.1157 53.6985 72.8767 54.0614 72.7418C54.506 72.5731 54.9788 72.4916 55.4541 72.5018C55.8293 72.494 56.2032 72.548 56.5608 72.6618C56.8439 72.752 57.1073 72.8953 57.337 73.084C57.5235 73.2373 57.6767 73.4272 57.7873 73.642C57.8774 73.817 57.926 74.0105 57.9293 74.2074C57.9291 74.3756 57.8659 74.5376 57.752 74.6612C57.6977 74.7258 57.6296 74.7774 57.5528 74.8123C57.4761 74.8472 57.3925 74.8645 57.3082 74.863C57.2414 74.8684 57.1742 74.8604 57.1105 74.8397C57.0467 74.8189 56.9877 74.7858 56.9368 74.7421C56.8269 74.6239 56.7349 74.4901 56.6639 74.345C56.5582 74.1097 56.403 73.9 56.2089 73.7303C56.0316 73.5825 55.7447 73.509 55.3547 73.509C54.9914 73.509 54.6983 73.589 54.4755 73.7489C54.2527 73.9089 54.1413 74.1014 54.1413 74.3264C54.1379 74.456 54.1777 74.583 54.2545 74.6873C54.3389 74.7959 54.4456 74.885 54.5674 74.9486C54.6955 75.0199 54.8309 75.0773 54.9713 75.1197C55.1068 75.1606 55.3312 75.2208 55.6444 75.3001C56.0044 75.383 56.3599 75.4845 56.7094 75.6042C56.9971 75.7001 57.2699 75.8359 57.5199 76.0078C57.7402 76.1628 57.9194 76.3693 58.0417 76.6095C58.1736 76.8826 58.2388 77.1832 58.232 77.4865Z" fill="#F6774D"/>
<path d="M63.981 78.09C63.9756 78.272 63.9259 78.4498 63.8362 78.608C63.7232 78.8096 63.5722 78.9871 63.3914 79.1307C63.1707 79.3092 62.9189 79.4451 62.6487 79.5315C62.3209 79.639 61.9778 79.692 61.6329 79.6887C60.8326 79.6887 60.2081 79.4549 59.7593 78.9875C59.3106 78.52 59.0862 77.8938 59.0862 77.1089C59.0772 76.6199 59.1845 76.1357 59.3991 75.6963C59.5947 75.2978 59.9052 74.9674 60.2904 74.7477C60.6459 74.5649 61.034 74.4544 61.4324 74.4224C61.8308 74.3905 62.2315 74.4379 62.6115 74.5617C62.8683 74.647 63.1088 74.7753 63.3227 74.9412C63.5006 75.0777 63.6517 75.2461 63.7684 75.4378C63.8627 75.585 63.9159 75.7549 63.9225 75.9297C63.9236 76.004 63.9087 76.0776 63.8789 76.1457C63.8491 76.2137 63.8051 76.2745 63.7498 76.324C63.6365 76.431 63.4858 76.4891 63.3302 76.4858C63.2338 76.4894 63.1391 76.4599 63.0618 76.4021C62.97 76.3244 62.8894 76.2343 62.8223 76.1343C62.6926 75.9239 62.5244 75.74 62.3265 75.5921C62.0754 75.4384 61.7772 75.3809 61.487 75.4303C61.1969 75.4797 60.9344 75.6327 60.7481 75.8609C60.5142 76.1604 60.3972 76.5695 60.3972 77.0885C60.3955 77.3159 60.4268 77.5424 60.49 77.7608C60.5422 77.9502 60.6305 78.1277 60.75 78.2835C60.8596 78.4243 61.0013 78.5368 61.1631 78.6118C61.3299 78.6873 61.5112 78.7254 61.6942 78.7234C61.9293 78.7299 62.1611 78.6672 62.3608 78.5429C62.5655 78.4002 62.7337 78.2113 62.852 77.9915C62.9174 77.8639 63.0037 77.7482 63.1073 77.6492C63.2 77.5668 63.3204 77.5226 63.4443 77.5256C63.5193 77.5242 63.5935 77.5397 63.6617 77.5709C63.7298 77.6021 63.7901 77.6483 63.838 77.706C63.9309 77.8122 63.9817 77.9488 63.981 78.09Z" fill="#F6774D"/>
<path d="M66.1341 73.2821V75.2062C66.2761 75.0371 66.4379 74.8856 66.616 74.7552C66.7738 74.6435 66.9492 74.5592 67.135 74.5059C67.3339 74.4488 67.5399 74.4206 67.7468 74.4222C68.0514 74.4164 68.3524 74.4884 68.6214 74.6315C68.8271 74.7504 69.004 74.9132 69.1398 75.1083C69.2755 75.3034 69.3667 75.5261 69.4069 75.7605C69.4405 75.9795 69.4563 76.201 69.4542 76.4226V78.9075C69.4542 79.1666 69.3948 79.3629 69.276 79.4962C69.2169 79.5623 69.144 79.6144 69.0625 79.649C68.981 79.6836 68.8928 79.6997 68.8043 79.6961C68.3772 79.6961 68.1637 79.4332 68.1637 78.9075V76.7174C68.1637 76.3026 68.1018 75.9837 67.978 75.7605C67.8542 75.5373 67.6202 75.4254 67.2761 75.4247C67.0525 75.4228 66.8341 75.4918 66.6522 75.6219C66.4645 75.7575 66.3203 75.945 66.2372 76.1613C66.1678 76.3547 66.1332 76.6985 66.1332 77.1926V78.9075C66.1332 79.1642 66.0756 79.3598 65.9605 79.4943C65.9004 79.562 65.8259 79.6153 65.7425 79.6502C65.6591 79.6852 65.5689 79.7008 65.4786 79.6961C65.0515 79.6961 64.838 79.4332 64.838 78.9075V73.2821C64.838 73.0198 64.8943 72.8227 65.007 72.6906C65.0657 72.6243 65.1386 72.5721 65.2203 72.538C65.3019 72.5039 65.3902 72.4886 65.4786 72.4935C65.5687 72.4888 65.6587 72.5044 65.7421 72.539C65.8254 72.5736 65.9 72.6263 65.9605 72.6934C66.0762 72.8267 66.1341 73.0229 66.1341 73.2821Z" fill="#F6774D"/>
<path d="M75.582 77.0596C75.586 77.4237 75.525 77.7856 75.4019 78.1282C75.2889 78.4409 75.1111 78.7262 74.8801 78.9651C74.6501 79.2014 74.3721 79.3853 74.0649 79.5045C73.724 79.6337 73.3617 79.6968 72.9972 79.6905C72.636 79.6973 72.277 79.6341 71.9397 79.5045C71.6323 79.3823 71.3543 79.1961 71.1241 78.9582C70.8939 78.7203 70.7168 78.4361 70.6046 78.1244C70.4822 77.7824 70.4219 77.4211 70.4263 77.0578C70.4221 76.6903 70.4831 76.3251 70.6064 75.979C70.718 75.6666 70.8942 75.3814 71.1236 75.142C71.354 74.907 71.6324 74.7246 71.9397 74.6073C72.6257 74.3549 73.3789 74.3549 74.0649 74.6073C74.3736 74.7271 74.6531 74.9116 74.8847 75.1485C75.1152 75.3876 75.2924 75.6728 75.4047 75.9855C75.5266 76.3303 75.5867 76.6939 75.582 77.0596ZM74.2822 77.0596C74.2822 76.5302 74.1661 76.1182 73.934 75.8237C73.8241 75.6808 73.6818 75.5663 73.5189 75.4894C73.356 75.4126 73.1772 75.3758 72.9972 75.382C72.7595 75.3777 72.5262 75.4465 72.3287 75.5791C72.1253 75.7241 71.97 75.9269 71.8831 76.1613C71.6757 76.7387 71.6757 77.3704 71.8831 77.9478C71.9705 78.1806 72.1237 78.3829 72.3241 78.5299C72.5226 78.6668 72.7591 78.7374 73 78.7317C73.1802 78.738 73.3593 78.7009 73.5223 78.6235C73.6853 78.5462 73.8274 78.4308 73.9368 78.2872C74.167 77.9915 74.2822 77.5823 74.2822 77.0596Z" fill="#F6774D"/>
<path d="M81.4498 77.0596C81.4521 77.424 81.3892 77.7859 81.2641 78.1282C81.1515 78.4411 80.9736 78.7264 80.7423 78.9651C80.5124 79.2014 80.2343 79.3853 79.9272 79.5045C79.5862 79.6337 79.2239 79.6968 78.8594 79.6905C78.4983 79.6973 78.1392 79.6341 77.8019 79.5045C77.4945 79.3823 77.2165 79.1961 76.9863 78.9582C76.7562 78.7203 76.5791 78.4361 76.4668 78.1244C76.2285 77.4292 76.2285 76.6742 76.4668 75.979C76.578 75.6667 76.754 75.3814 76.983 75.142C77.2135 74.907 77.4918 74.7246 77.7992 74.6073C78.4852 74.3549 79.2384 74.3549 79.9244 74.6073C80.2339 74.7261 80.5139 74.9108 80.7452 75.1486C80.9765 75.3864 81.1536 75.6716 81.2641 75.9846C81.3895 76.329 81.4524 76.6931 81.4498 77.0596ZM80.15 77.0596C80.15 76.5302 80.0336 76.1182 79.8009 75.8237C79.691 75.6808 79.5488 75.5662 79.3858 75.4893C79.2229 75.4125 79.0441 75.3757 78.8641 75.382C78.6264 75.3777 78.3931 75.4465 78.1956 75.5791C77.9922 75.7241 77.8369 75.9269 77.7499 76.1613C77.5426 76.7387 77.5426 77.3704 77.7499 77.9478C77.8374 78.1806 77.9906 78.3829 78.191 78.5299C78.3894 78.6668 78.626 78.7374 78.8669 78.7317C79.0471 78.7381 79.2263 78.7011 79.3893 78.6237C79.5523 78.5464 79.6944 78.431 79.8037 78.2872C80.0352 77.9915 80.1506 77.5823 80.15 77.0596Z" fill="#F6774D"/>
<path d="M82.4692 78.9075V73.2821C82.4692 73.0229 82.5268 72.8267 82.6419 72.6934C82.6996 72.6277 82.7712 72.5756 82.8515 72.541C82.9318 72.5064 83.0188 72.4902 83.1062 72.4935C83.1948 72.4899 83.2831 72.5057 83.365 72.5398C83.447 72.5738 83.5205 72.6253 83.5806 72.6906C83.7013 72.8227 83.7607 73.0198 83.7607 73.2821V78.9075C83.7607 79.1704 83.6988 79.3675 83.575 79.499C83.515 79.5638 83.4417 79.615 83.3601 79.649C83.2786 79.683 83.1907 79.6991 83.1024 79.6961C83.0147 79.6992 82.9274 79.6823 82.847 79.6469C82.7666 79.6115 82.6953 79.5584 82.6382 79.4915C82.5132 79.3237 82.4531 79.1162 82.4692 78.9075Z" fill="#F6774D"/>
<path d="M31.7089 75.0834V74.7412C31.7326 74.6277 31.7946 74.5258 31.8845 74.4527C31.9744 74.3795 32.0866 74.3396 32.2024 74.3396C32.3182 74.3396 32.4305 74.3795 32.5203 74.4527C32.6102 74.5258 32.6722 74.6277 32.6959 74.7412V79.6347C32.6635 79.7405 32.598 79.833 32.5092 79.8988C32.4204 79.9645 32.3129 80 32.2024 80C32.092 80 31.9844 79.9645 31.8956 79.8988C31.8068 79.833 31.7414 79.7405 31.7089 79.6347V79.0219C31.2342 79.5117 30.6839 79.7569 30.0582 79.7575C29.6996 79.7642 29.3432 79.6992 29.01 79.5663C28.6768 79.4335 28.3733 79.2354 28.1174 78.9838C27.8614 78.7321 27.6581 78.4319 27.5194 78.1007C27.3806 77.7694 27.3091 77.4138 27.3091 77.0545C27.3091 76.6953 27.3806 76.3397 27.5194 76.0084C27.6581 75.6771 27.8614 75.3769 28.1174 75.1253C28.3733 74.8736 28.6768 74.6756 29.01 74.5427C29.3432 74.4099 29.6996 74.3449 30.0582 74.3516C30.6852 74.3516 31.2354 74.5955 31.7089 75.0834ZM31.7089 77.4158V76.6932C31.646 76.3743 31.4873 76.0823 31.254 75.8563C31.0177 75.62 30.7167 75.4592 30.3892 75.3942C30.0617 75.3292 29.7223 75.3629 29.4139 75.4911C29.1055 75.6192 28.8419 75.836 28.6565 76.1141C28.4711 76.3922 28.3721 76.7192 28.3721 77.0536C28.3721 77.388 28.4711 77.715 28.6565 77.9931C28.8419 78.2712 29.1055 78.488 29.4139 78.6161C29.7223 78.7443 30.0617 78.778 30.3892 78.713C30.7167 78.648 31.0177 78.4872 31.254 78.2509C31.4869 78.0254 31.6456 77.7341 31.7089 77.4158Z" fill="#F6774D"/>
<path d="M41.5217 78.2091C41.4945 78.1365 41.4636 78.0584 41.4289 77.9747L39.6119 73.4802C39.5581 73.337 39.5098 73.2142 39.468 73.1082L39.455 73.0766L39.4383 73.0338L38.9174 71.7318H37.8822C37.7293 72.1125 37.5746 72.4932 37.418 72.8738C37.3957 72.9213 37.3753 72.9668 37.3539 73.0245L37.2704 73.2393L37.171 73.4923L35.3967 78.0147C35.367 78.0873 35.3429 78.1514 35.3197 78.2109L34.7143 79.6719L36.1553 79.6896L36.4923 78.8656C36.5415 78.7578 36.5926 78.6304 36.6483 78.4806L36.9807 77.5879H39.8087L40.1402 78.462C40.1848 78.569 40.2377 78.6936 40.299 78.834L40.3147 78.8675C40.4385 79.1409 40.5623 79.4146 40.6861 79.6887L42.128 79.671L41.5217 78.2091ZM37.3502 76.5268L38.3799 73.6522L39.4281 76.5268H37.3502Z" fill="#F6774D"/>
<defs>
<linearGradient id="paint0_linear_311_859" x1="78.1975" y1="32.2089" x2="89" y2="32.2089" gradientUnits="userSpaceOnUse">
<stop offset="0.24" stop-color="#F46A40"/>
<stop offset="0.46" stop-color="#F69E41"/>
<stop offset="0.74" stop-color="#F8D742"/>
<stop offset="0.87" stop-color="#F9ED43"/>
</linearGradient>
<linearGradient id="paint1_linear_311_859" x1="19.9956" y1="42.287" x2="1.52564" y2="49.8145" gradientUnits="userSpaceOnUse">
<stop offset="0.18" stop-color="#F46A40" stop-opacity="0.32"/>
<stop offset="0.86" stop-color="#F9ED43" stop-opacity="0.7"/>
</linearGradient>
<linearGradient id="paint2_linear_311_859" x1="28.2597" y1="68.9865" x2="26.7642" y2="73.4601" gradientUnits="userSpaceOnUse">
<stop offset="0.33" stop-color="#F46A40"/>
<stop offset="0.88" stop-color="#F9ED43" stop-opacity="0.79"/>
</linearGradient>
<linearGradient id="paint3_linear_311_859" x1="37.2741" y1="58.2158" x2="33.0285" y2="62.4545" gradientUnits="userSpaceOnUse">
<stop offset="0.16" stop-color="#F46A40" stop-opacity="0.31"/>
<stop offset="0.19" stop-color="#F47240" stop-opacity="0.34"/>
<stop offset="0.33" stop-color="#F69741" stop-opacity="0.5"/>
<stop offset="0.47" stop-color="#F7B642" stop-opacity="0.62"/>
<stop offset="0.61" stop-color="#F8CE42" stop-opacity="0.72"/>
<stop offset="0.75" stop-color="#F8DF43" stop-opacity="0.79"/>
<stop offset="0.88" stop-color="#F9EA43" stop-opacity="0.84"/>
<stop offset="1" stop-color="#F9ED43" stop-opacity="0.85"/>
</linearGradient>
<linearGradient id="paint4_linear_311_859" x1="60.4398" y1="49.5015" x2="50.5931" y2="61.7829" gradientUnits="userSpaceOnUse">
<stop offset="0.22" stop-color="#F36541" stop-opacity="0.32"/>
<stop offset="0.62" stop-color="#F5AA44" stop-opacity="0.41"/>
<stop offset="0.92" stop-color="#F6D546" stop-opacity="0.46"/>
</linearGradient>
<linearGradient id="paint5_linear_311_859" x1="61.3429" y1="50.2254" x2="51.4962" y2="62.5068" gradientUnits="userSpaceOnUse">
<stop offset="0.22" stop-color="#F36541" stop-opacity="0.32"/>
<stop offset="0.62" stop-color="#F5AA44" stop-opacity="0.41"/>
<stop offset="0.92" stop-color="#F6D546" stop-opacity="0.46"/>
</linearGradient>
<linearGradient id="paint6_linear_311_859" x1="61.1077" y1="50.0366" x2="51.2611" y2="62.318" gradientUnits="userSpaceOnUse">
<stop offset="0.22" stop-color="#F36541" stop-opacity="0.32"/>
<stop offset="0.62" stop-color="#F5AA44" stop-opacity="0.41"/>
<stop offset="0.92" stop-color="#F6D546" stop-opacity="0.46"/>
</linearGradient>
<linearGradient id="paint7_linear_311_859" x1="61.0953" y1="50.0263" x2="51.2486" y2="62.3077" gradientUnits="userSpaceOnUse">
<stop offset="0.22" stop-color="#F36541" stop-opacity="0.32"/>
<stop offset="0.62" stop-color="#F5AA44" stop-opacity="0.41"/>
<stop offset="0.92" stop-color="#F6D546" stop-opacity="0.46"/>
</linearGradient>
<linearGradient id="paint8_linear_311_859" x1="74.5198" y1="38.6797" x2="73.506" y2="36.408" gradientUnits="userSpaceOnUse">
<stop offset="0.22" stop-color="#F36541" stop-opacity="0.44"/>
<stop offset="0.67" stop-color="#F5B144" stop-opacity="0.54"/>
<stop offset="0.92" stop-color="#F6D546" stop-opacity="0.58"/>
</linearGradient>
<linearGradient id="paint9_linear_311_859" x1="64.7657" y1="9.75256" x2="62.4943" y2="1.3873" gradientUnits="userSpaceOnUse">
<stop offset="0.29" stop-color="#F46A40" stop-opacity="0.31"/>
<stop offset="0.74" stop-color="#F9ED43" stop-opacity="0.66"/>
</linearGradient>
<linearGradient id="paint10_linear_311_859" x1="32.5177" y1="49.119" x2="10.5346" y2="51.6859" gradientUnits="userSpaceOnUse">
<stop offset="0.17" stop-color="#F47040" stop-opacity="0.47"/>
<stop offset="0.18" stop-color="#F46A40" stop-opacity="0.32"/>
<stop offset="0.68" stop-color="#F9ED43" stop-opacity="0.75"/>
</linearGradient>
<linearGradient id="paint11_linear_311_859" x1="59.7714" y1="17.9952" x2="57.4914" y2="6.371" gradientUnits="userSpaceOnUse">
<stop offset="0.37" stop-color="#F46A40" stop-opacity="0.31"/>
<stop offset="0.61" stop-color="#F7AE42" stop-opacity="0.59"/>
<stop offset="0.78" stop-color="#F8DB43" stop-opacity="0.77"/>
<stop offset="0.87" stop-color="#F9ED43" stop-opacity="0.84"/>
</linearGradient>
<linearGradient id="paint12_linear_311_859" x1="62.2085" y1="10.1515" x2="67.1822" y2="7.15636" gradientUnits="userSpaceOnUse">
<stop offset="0.29" stop-color="#F46A40" stop-opacity="0.31"/>
<stop offset="0.37" stop-color="#F57F40" stop-opacity="0.42"/>
<stop offset="0.62" stop-color="#F7BA42" stop-opacity="0.73"/>
<stop offset="0.79" stop-color="#F8DF43" stop-opacity="0.92"/>
<stop offset="0.87" stop-color="#F9ED43"/>
</linearGradient>
<linearGradient id="paint13_linear_311_859" x1="59.3416" y1="24.6461" x2="54.9149" y2="15.4858" gradientUnits="userSpaceOnUse">
<stop offset="0.37" stop-color="#F46A40" stop-opacity="0.31"/>
<stop offset="0.61" stop-color="#F7B042" stop-opacity="0.6"/>
<stop offset="0.79" stop-color="#F8DC43" stop-opacity="0.79"/>
<stop offset="0.87" stop-color="#F9ED43" stop-opacity="0.86"/>
</linearGradient>
<linearGradient id="paint14_linear_311_859" x1="64.5261" y1="15.4022" x2="64.9539" y2="6.18021" gradientUnits="userSpaceOnUse">
<stop offset="0.37" stop-color="#F46A40" stop-opacity="0.31"/>
<stop offset="0.52" stop-color="#F69541" stop-opacity="0.42"/>
<stop offset="0.76" stop-color="#F8D442" stop-opacity="0.58"/>
<stop offset="0.87" stop-color="#F9ED43" stop-opacity="0.64"/>
</linearGradient>
<linearGradient id="paint15_linear_311_859" x1="59.119" y1="18.014" x2="56.4529" y2="7.1871" gradientUnits="userSpaceOnUse">
<stop offset="0.37" stop-color="#F46A40" stop-opacity="0.31"/>
<stop offset="0.56" stop-color="#F6A341" stop-opacity="0.49"/>
<stop offset="0.77" stop-color="#F8D843" stop-opacity="0.66"/>
<stop offset="0.87" stop-color="#F9ED43" stop-opacity="0.73"/>
</linearGradient>
<linearGradient id="paint16_linear_311_859" x1="28.655" y1="48.374" x2="12.6768" y2="51.1891" gradientUnits="userSpaceOnUse">
<stop offset="0.24" stop-color="#F46A40" stop-opacity="0.32"/>
<stop offset="0.59" stop-color="#F8C742" stop-opacity="0.29"/>
<stop offset="0.83" stop-color="#F9ED43" stop-opacity="0.28"/>
</linearGradient>
<linearGradient id="paint17_linear_311_859" x1="16.6226" y1="45.7393" x2="2.79615" y2="48.1753" gradientUnits="userSpaceOnUse">
<stop offset="0.18" stop-color="#F46A40" stop-opacity="0.26"/>
<stop offset="0.22" stop-color="#F46F40" stop-opacity="0.33"/>
<stop offset="0.86" stop-color="#F9ED43" stop-opacity="0.54"/>
</linearGradient>
<linearGradient id="paint18_linear_311_859" x1="17.673" y1="45.0732" x2="6.65591" y2="49.0791" gradientUnits="userSpaceOnUse">
<stop offset="0.18" stop-color="#F46A40" stop-opacity="0.17"/>
<stop offset="0.86" stop-color="#F9ED43" stop-opacity="0.26"/>
</linearGradient>
<linearGradient id="paint19_linear_311_859" x1="17.9731" y1="43.9834" x2="7.48275" y2="49.2881" gradientUnits="userSpaceOnUse">
<stop offset="0.18" stop-color="#F46A40" stop-opacity="0.17"/>
<stop offset="0.86" stop-color="#F9ED43" stop-opacity="0.26"/>
</linearGradient>
<linearGradient id="paint20_linear_311_859" x1="58.0486" y1="18.0212" x2="58.3954" y2="10.2597" gradientUnits="userSpaceOnUse">
<stop offset="0.37" stop-color="#F46A40" stop-opacity="0.31"/>
<stop offset="0.58" stop-color="#F6A741" stop-opacity="0.52"/>
<stop offset="0.77" stop-color="#F8D943" stop-opacity="0.7"/>
<stop offset="0.87" stop-color="#F9ED43" stop-opacity="0.77"/>
</linearGradient>
<linearGradient id="paint21_linear_311_859" x1="17.343" y1="38.847" x2="0.209724" y2="45.8292" gradientUnits="userSpaceOnUse">
<stop offset="0.18" stop-color="#F46A40" stop-opacity="0.23"/>
<stop offset="0.86" stop-color="#F9ED43" stop-opacity="0.42"/>
</linearGradient>
<linearGradient id="paint22_linear_311_859" x1="12.9" y1="44.3624" x2="7.43124" y2="51.2956" gradientUnits="userSpaceOnUse">
<stop offset="0.18" stop-color="#F46A40" stop-opacity="0.23"/>
<stop offset="0.86" stop-color="#F9ED43" stop-opacity="0.67"/>
</linearGradient>
<linearGradient id="paint23_linear_311_859" x1="63.822" y1="16.5645" x2="64.5409" y2="1.02637" gradientUnits="userSpaceOnUse">
<stop offset="0.37" stop-color="#F46A40" stop-opacity="0.31"/>
<stop offset="0.52" stop-color="#F69541" stop-opacity="0.42"/>
<stop offset="0.76" stop-color="#F8D442" stop-opacity="0.58"/>
<stop offset="0.87" stop-color="#F9ED43" stop-opacity="0.64"/>
</linearGradient>
</defs>
</svg>
