<svg width="24" height="24" viewBox="0 0 24 24" fill="none" xmlns="http://www.w3.org/2000/svg">
<circle cx="12" cy="12" r="12" fill="#F6774D"/>
<g clip-path="url(#clip0_254_2483)">
<path d="M16.8 12.0004C16.8 12.3318 16.5314 12.6004 16.2 12.6004H7.8C7.46863 12.6004 7.2 12.3318 7.2 12.0004C7.2 11.669 7.46863 11.4004 7.8 11.4004H16.2C16.5314 11.4004 16.8 11.669 16.8 12.0004Z" fill="white"/>
<path d="M12 16.8002C11.6686 16.8002 11.4 16.5316 11.4 16.2002L11.4 7.80019C11.4 7.46882 11.6686 7.2002 12 7.2002C12.3314 7.2002 12.6 7.46882 12.6 7.8002L12.6 16.2002C12.6 16.5316 12.3314 16.8002 12 16.8002Z" fill="white"/>
</g>
<defs>
<clipPath id="clip0_254_2483">
<rect width="9.6" height="9.6" fill="white" transform="translate(7.2 7.2002)"/>
</clipPath>
</defs>
</svg>
